<svg width="12" height="12" viewBox="0 0 12 12" fill="none" xmlns="http://www.w3.org/2000/svg">
<g clip-path="url(#clip0_36_31105)">
<path d="M11.0858 0.915257C11.0091 0.838589 10.9119 0.78572 10.8059 0.763017C10.6998 0.740313 10.5895 0.748742 10.4882 0.787288L1.11245 4.33596H1.11057C1.00247 4.37754 0.909839 4.45147 0.845328 4.54767C0.780817 4.64386 0.747574 4.75763 0.750138 4.87342C0.752702 4.98921 0.790949 5.10139 0.859654 5.19464C0.92836 5.28788 1.02417 5.35765 1.13401 5.3944L1.14362 5.39744L4.36159 6.77159C4.42436 6.79064 4.49102 6.7929 4.55493 6.77813C4.61884 6.76337 4.67776 6.7321 4.72581 6.68744L9.8905 1.87502C9.90589 1.85963 9.92416 1.84743 9.94426 1.8391C9.96437 1.83077 9.98592 1.82648 10.0077 1.82648C10.0294 1.82648 10.051 1.83077 10.0711 1.8391C10.0912 1.84743 10.1095 1.85963 10.1249 1.87502C10.1403 1.89041 10.1525 1.90868 10.1608 1.92879C10.1691 1.9489 10.1734 1.97045 10.1734 1.99221C10.1734 2.01397 10.1691 2.03552 10.1608 2.05563C10.1525 2.07574 10.1403 2.09401 10.1249 2.1094L5.31221 7.27174C5.26756 7.31979 5.23629 7.37871 5.22153 7.44262C5.20676 7.50653 5.20902 7.57319 5.22807 7.63596L6.60268 10.8558C6.60409 10.8605 6.6055 10.8647 6.60714 10.8692C6.68214 11.0864 6.87198 11.2397 7.10143 11.25H7.12487C7.24071 11.2507 7.35406 11.2165 7.4502 11.1519C7.54634 11.0872 7.62081 10.9952 7.66393 10.8877L11.2121 1.51455C11.2512 1.41314 11.2601 1.30256 11.2377 1.1962C11.2153 1.08985 11.1625 0.992265 11.0858 0.915257Z" fill="#1FA7B0"/>
</g>
<defs>
<clipPath id="clip0_36_31105">
<rect width="12" height="12" fill="white"/>
</clipPath>
</defs>
</svg>
