<svg width="20" height="20" viewBox="0 0 20 20" fill="none" xmlns="http://www.w3.org/2000/svg">
<path d="M19.0442 10.7973L12.2942 17.5473C12.0829 17.7587 11.7962 17.8774 11.4974 17.8774C11.1985 17.8774 10.9118 17.7587 10.7005 17.5473C10.4891 17.336 10.3704 17.0493 10.3704 16.7504C10.3704 16.4516 10.4891 16.1649 10.7005 15.9536L15.5295 11.1264H1.74829C1.44992 11.1264 1.16377 11.0079 0.952796 10.7969C0.741817 10.5859 0.623291 10.2998 0.623291 10.0014C0.623291 9.70302 0.741817 9.41687 0.952796 9.20589C1.16377 8.99491 1.44992 8.87639 1.74829 8.87639H15.5295L10.7024 4.04639C10.491 3.83504 10.3723 3.5484 10.3723 3.24951C10.3723 2.95062 10.491 2.66398 10.7024 2.45263C10.9137 2.24129 11.2003 2.12256 11.4992 2.12256C11.7981 2.12256 12.0848 2.24129 12.2961 2.45263L19.0461 9.20263C19.151 9.30729 19.2342 9.43164 19.2909 9.56854C19.3476 9.70544 19.3767 9.85219 19.3765 10.0004C19.3763 10.1485 19.3469 10.2952 19.2899 10.432C19.2329 10.5688 19.1494 10.6929 19.0442 10.7973Z" fill="#FAFAFA"/>
</svg>
