<svg width="28" height="28" viewBox="0 0 28 28" fill="none" xmlns="http://www.w3.org/2000/svg">
<path d="M24.5 18.7728V12.9471C24.5 7.94377 24.5 5.44208 22.9623 3.88772C21.4246 2.33337 18.9497 2.33337 14 2.33337C9.05025 2.33337 6.57538 2.33337 5.03769 3.88772C3.5 5.44208 3.5 7.94377 3.5 12.9471V18.7728C3.5 22.3854 3.5 24.1918 4.35646 24.9811C4.76492 25.3575 5.28051 25.594 5.82973 25.6568C6.98136 25.7886 8.32619 24.5991 11.0159 22.2202C12.2048 21.1686 12.7992 20.6428 13.487 20.5043C13.8257 20.4361 14.1743 20.4361 14.513 20.5043C15.2008 20.6428 15.7952 21.1686 16.9841 22.2202C19.6738 24.5991 21.0186 25.7886 22.1703 25.6568C22.7195 25.594 23.2351 25.3575 23.6435 24.9811C24.5 24.1918 24.5 22.3854 24.5 18.7728Z" stroke="#9698A9" stroke-width="1.5"/>
<path d="M17.5 7H10.5" stroke="#9698A9" stroke-width="1.5" stroke-linecap="round"/>
</svg>
