<svg width="32" height="32" viewBox="0 0 32 32" fill="none" xmlns="http://www.w3.org/2000/svg">
<path d="M10.3332 3.33331C10.3332 2.78103 9.88546 2.33331 9.33317 2.33331C8.78089 2.33331 8.33317 2.78103 8.33317 3.33331V5.43899C6.41406 5.59266 5.1542 5.96981 4.2286 6.89541C3.303 7.82101 2.92585 9.08087 2.77218 11H29.2275C29.0738 9.08087 28.6967 7.82101 27.7711 6.89541C26.8455 5.96981 25.5856 5.59266 23.6665 5.43899V3.33331C23.6665 2.78103 23.2188 2.33331 22.6665 2.33331C22.1142 2.33331 21.6665 2.78103 21.6665 3.33331V5.35052C20.7795 5.33331 19.7852 5.33331 18.6665 5.33331H13.3332C12.2145 5.33331 11.2202 5.33331 10.3332 5.35052V3.33331Z" fill="#2684FC"/>
<path fill-rule="evenodd" clip-rule="evenodd" d="M2.6665 16C2.6665 14.8813 2.6665 13.887 2.68371 13H29.316C29.3332 13.887 29.3332 14.8813 29.3332 16V18.6666C29.3332 23.695 29.3332 26.2091 27.7711 27.7712C26.209 29.3333 23.6948 29.3333 18.6665 29.3333H13.3332C8.30486 29.3333 5.7907 29.3333 4.2286 27.7712C2.6665 26.2091 2.6665 23.695 2.6665 18.6666V16ZM22.6665 18.6666C23.4029 18.6666 23.9998 18.0697 23.9998 17.3333C23.9998 16.5969 23.4029 16 22.6665 16C21.9301 16 21.3332 16.5969 21.3332 17.3333C21.3332 18.0697 21.9301 18.6666 22.6665 18.6666ZM22.6665 24C23.4029 24 23.9998 23.403 23.9998 22.6666C23.9998 21.9303 23.4029 21.3333 22.6665 21.3333C21.9301 21.3333 21.3332 21.9303 21.3332 22.6666C21.3332 23.403 21.9301 24 22.6665 24ZM17.3332 17.3333C17.3332 18.0697 16.7362 18.6666 15.9998 18.6666C15.2635 18.6666 14.6665 18.0697 14.6665 17.3333C14.6665 16.5969 15.2635 16 15.9998 16C16.7362 16 17.3332 16.5969 17.3332 17.3333ZM17.3332 22.6666C17.3332 23.403 16.7362 24 15.9998 24C15.2635 24 14.6665 23.403 14.6665 22.6666C14.6665 21.9303 15.2635 21.3333 15.9998 21.3333C16.7362 21.3333 17.3332 21.9303 17.3332 22.6666ZM9.33317 18.6666C10.0696 18.6666 10.6665 18.0697 10.6665 17.3333C10.6665 16.5969 10.0696 16 9.33317 16C8.59679 16 7.99984 16.5969 7.99984 17.3333C7.99984 18.0697 8.59679 18.6666 9.33317 18.6666ZM9.33317 24C10.0696 24 10.6665 23.403 10.6665 22.6666C10.6665 21.9303 10.0696 21.3333 9.33317 21.3333C8.59679 21.3333 7.99984 21.9303 7.99984 22.6666C7.99984 23.403 8.59679 24 9.33317 24Z" fill="#2684FC"/>
</svg>
