<svg width="28" height="28" viewBox="0 0 28 28" fill="none" xmlns="http://www.w3.org/2000/svg">
<path d="M2.33325 14C2.33325 9.60018 2.33325 7.4003 3.70009 6.03346C5.06692 4.66663 7.26681 4.66663 11.6666 4.66663H16.3333C20.733 4.66663 22.9329 4.66663 24.2997 6.03346C25.6666 7.4003 25.6666 9.60018 25.6666 14V16.3333C25.6666 20.7331 25.6666 22.933 24.2997 24.2998C22.9329 25.6666 20.733 25.6666 16.3333 25.6666H11.6666C7.26681 25.6666 5.06692 25.6666 3.70009 24.2998C2.33325 22.933 2.33325 20.7331 2.33325 16.3333V14Z" stroke="#9698A9" stroke-width="1.5"/>
<path d="M8.16675 4.66663V2.91663" stroke="#9698A9" stroke-width="1.5" stroke-linecap="round"/>
<path d="M19.8333 4.66663V2.91663" stroke="#9698A9" stroke-width="1.5" stroke-linecap="round"/>
<path d="M2.91675 10.5H25.0834" stroke="#9698A9" stroke-width="1.5" stroke-linecap="round"/>
<path d="M21.0001 19.8333C21.0001 20.4777 20.4777 21 19.8334 21C19.1891 21 18.6667 20.4777 18.6667 19.8333C18.6667 19.189 19.1891 18.6667 19.8334 18.6667C20.4777 18.6667 21.0001 19.189 21.0001 19.8333Z" fill="#9698A9"/>
<path d="M21.0001 15.1667C21.0001 15.811 20.4777 16.3333 19.8334 16.3333C19.1891 16.3333 18.6667 15.811 18.6667 15.1667C18.6667 14.5223 19.1891 14 19.8334 14C20.4777 14 21.0001 14.5223 21.0001 15.1667Z" fill="#9698A9"/>
<path d="M15.1666 19.8333C15.1666 20.4777 14.6443 21 13.9999 21C13.3556 21 12.8333 20.4777 12.8333 19.8333C12.8333 19.189 13.3556 18.6667 13.9999 18.6667C14.6443 18.6667 15.1666 19.189 15.1666 19.8333Z" fill="#9698A9"/>
<path d="M15.1666 15.1667C15.1666 15.811 14.6443 16.3333 13.9999 16.3333C13.3556 16.3333 12.8333 15.811 12.8333 15.1667C12.8333 14.5223 13.3556 14 13.9999 14C14.6443 14 15.1666 14.5223 15.1666 15.1667Z" fill="#9698A9"/>
<path d="M9.33333 19.8333C9.33333 20.4777 8.811 21 8.16667 21C7.52233 21 7 20.4777 7 19.8333C7 19.189 7.52233 18.6667 8.16667 18.6667C8.811 18.6667 9.33333 19.189 9.33333 19.8333Z" fill="#9698A9"/>
<path d="M9.33333 15.1667C9.33333 15.811 8.811 16.3333 8.16667 16.3333C7.52233 16.3333 7 15.811 7 15.1667C7 14.5223 7.52233 14 8.16667 14C8.811 14 9.33333 14.5223 9.33333 15.1667Z" fill="#9698A9"/>
</svg>
