<svg width="49" height="48" viewBox="0 0 49 48" fill="none" xmlns="http://www.w3.org/2000/svg">
<rect x="0.5" width="48" height="48" rx="24" fill="white"/>
<g clip-path="url(#clip0_25_156)">
<path d="M20.8606 12.7894C18.4626 13.6213 16.3946 15.2002 14.9603 17.2943C13.526 19.3884 12.801 21.8872 12.8919 24.4237C12.9827 26.9603 13.8846 29.4008 15.465 31.3869C17.0454 33.373 19.2211 34.8 21.6724 35.4582C23.6598 35.971 25.7419 35.9935 27.7399 35.5238C29.5499 35.1172 31.2233 34.2476 32.5962 33.0001C34.0251 31.662 35.0622 29.9597 35.5962 28.0763C36.1763 26.0282 36.2796 23.8743 35.8981 21.7801H24.7381V26.4094H31.2012C31.072 27.1478 30.7952 27.8525 30.3873 28.4814C29.9795 29.1102 29.4489 29.6504 28.8274 30.0694C28.0383 30.5917 27.1486 30.943 26.2156 31.1007C25.2798 31.2747 24.32 31.2747 23.3843 31.1007C22.4358 30.9048 21.5386 30.5134 20.7499 29.9513C19.4827 29.0543 18.5312 27.7799 18.0312 26.3101C17.5228 24.8126 17.5228 23.1893 18.0312 21.6919C18.3871 20.6423 18.9755 19.6867 19.7524 18.8963C20.6415 17.9752 21.7672 17.3168 23.0058 16.9933C24.2445 16.6698 25.5484 16.6938 26.7743 17.0626C27.7321 17.3564 28.6079 17.8701 29.3318 18.5626C30.0606 17.8376 30.7881 17.1107 31.5143 16.3819C31.8893 15.9901 32.2981 15.6169 32.6674 15.2157C31.5622 14.1873 30.2649 13.387 28.8499 12.8607C26.2731 11.925 23.4536 11.8999 20.8606 12.7894Z" fill="white"/>
<path d="M20.8607 12.7894C23.4536 11.8992 26.2731 11.9237 28.8501 12.8587C30.2653 13.3886 31.562 14.1928 32.6657 15.225C32.2907 15.6262 31.8951 16.0012 31.5126 16.3912C30.7851 17.1175 30.0582 17.8412 29.332 18.5625C28.608 17.87 27.7322 17.3563 26.7745 17.0625C25.5489 16.6924 24.2451 16.6671 23.0061 16.9893C21.7671 17.3114 20.6408 17.9686 19.7507 18.8887C18.9738 19.6791 18.3854 20.6348 18.0295 21.6844L14.1426 18.675C15.5338 15.916 17.9427 13.8057 20.8607 12.7894Z" fill="#E33629"/>
<path d="M13.1112 21.6563C13.3199 20.6209 13.6668 19.6182 14.1424 18.675L18.0293 21.6919C17.5209 23.1893 17.5209 24.8126 18.0293 26.31C16.7343 27.31 15.4387 28.315 14.1424 29.325C12.9521 26.9556 12.589 24.256 13.1112 21.6563Z" fill="#F8BD00"/>
<path d="M24.7381 21.7781H35.8981C36.2797 23.8723 36.1764 26.0262 35.5963 28.0743C35.0623 29.9577 34.0252 31.66 32.5963 32.9981C31.3419 32.0193 30.0819 31.0481 28.8275 30.0693C29.4494 29.6498 29.9802 29.1091 30.3881 28.4796C30.796 27.85 31.0726 27.1446 31.2013 26.4056H24.7381C24.7363 24.8643 24.7381 23.3212 24.7381 21.7781Z" fill="#587DBD"/>
<path d="M14.1406 29.3251C15.4369 28.3251 16.7325 27.3201 18.0275 26.3101C18.5285 27.7804 19.4814 29.0549 20.75 29.9513C21.5412 30.5107 22.4403 30.899 23.39 31.0913C24.3257 31.2653 25.2855 31.2653 26.2213 31.0913C27.1543 30.9336 28.044 30.5823 28.8331 30.0601C30.0875 31.0388 31.3475 32.0101 32.6019 32.9888C31.2292 34.237 29.5558 35.1073 27.7456 35.5144C25.7476 35.9841 23.6655 35.9616 21.6781 35.4488C20.1063 35.0291 18.6381 34.2893 17.3656 33.2757C16.0189 32.2062 14.9188 30.8587 14.1406 29.3251Z" fill="#319F43"/>
</g>
<defs>
<clipPath id="clip0_25_156">
<rect width="24" height="24" fill="white" transform="translate(12.5 12)"/>
</clipPath>
</defs>
</svg>
