<svg width="28" height="28" viewBox="0 0 28 28" fill="none" xmlns="http://www.w3.org/2000/svg">
<path fill-rule="evenodd" clip-rule="evenodd" d="M2.93899 9.12657C2.33325 10.2332 2.33325 11.5681 2.33325 14.2379V16.0125C2.33325 20.5635 2.33325 22.839 3.70009 24.2529C5.06692 25.6667 7.26681 25.6667 11.6666 25.6667H16.3333C20.733 25.6667 22.9329 25.6667 24.2997 24.2529C25.6666 22.839 25.6666 20.5635 25.6666 16.0125V14.2379C25.6666 11.5681 25.6666 10.2332 25.0608 9.12657C24.4551 8.01995 23.3485 7.33314 21.1352 5.95952L18.8019 4.51139C16.4623 3.05938 15.2925 2.33337 13.9999 2.33337C12.7073 2.33337 11.5375 3.05938 9.19796 4.51139L6.86462 5.95952C4.65135 7.33314 3.54472 8.01995 2.93899 9.12657ZM10.4999 20.125C10.0167 20.125 9.62492 20.5168 9.62492 21C9.62492 21.4833 10.0167 21.875 10.4999 21.875H17.4999C17.9832 21.875 18.3749 21.4833 18.3749 21C18.3749 20.5168 17.9832 20.125 17.4999 20.125H10.4999Z" fill="#2684FC"/>
</svg>
