<svg width="32" height="32" viewBox="0 0 32 32" fill="none" xmlns="http://www.w3.org/2000/svg">
<path d="M2.6665 16.2719C2.6665 13.2207 2.6665 11.6951 3.35877 10.4303C4.05104 9.16563 5.31576 8.38071 7.84522 6.81086L10.5119 5.15585C13.1857 3.49641 14.5226 2.66669 15.9998 2.66669C17.4771 2.66669 18.814 3.49641 21.4878 5.15585L24.1545 6.81085C26.6839 8.3807 27.9486 9.16563 28.6409 10.4303C29.3332 11.6951 29.3332 13.2207 29.3332 16.2719V18.3C29.3332 23.5012 29.3332 26.1017 27.7711 27.7176C26.209 29.3334 23.6948 29.3334 18.6665 29.3334H13.3332C8.30486 29.3334 5.7907 29.3334 4.2286 27.7176C2.6665 26.1017 2.6665 23.5012 2.6665 18.3V16.2719Z" stroke="#9698A9" stroke-width="1.5"/>
<path d="M20 24H12" stroke="#9698A9" stroke-width="1.5" stroke-linecap="round"/>
</svg>
