<svg width="32" height="32" viewBox="0 0 32 32" fill="none" xmlns="http://www.w3.org/2000/svg">
<path fill-rule="evenodd" clip-rule="evenodd" d="M28 14.7967V21.4546C28 25.5833 28 27.6477 27.0212 28.5498C26.5544 28.98 25.9651 29.2502 25.3374 29.3221C24.0213 29.4727 22.4844 28.1133 19.4105 25.3945C18.0517 24.1927 17.3723 23.5918 16.5863 23.4334C16.1992 23.3555 15.8008 23.3555 15.4137 23.4334C14.6277 23.5918 13.9483 24.1927 12.5895 25.3945C9.51564 28.1133 7.97869 29.4727 6.66255 29.3221C6.03486 29.2502 5.44562 28.98 4.97881 28.5498C4 27.6477 4 25.5833 4 21.4546V14.7967C4 9.07856 4 6.21949 5.75736 4.44309C7.51472 2.66669 10.3431 2.66669 16 2.66669C21.6569 2.66669 24.4853 2.66669 26.2426 4.44309C28 6.21949 28 9.07856 28 14.7967ZM11 8.00002C11 7.44774 11.4477 7.00002 12 7.00002H20C20.5523 7.00002 21 7.44774 21 8.00002C21 8.55231 20.5523 9.00002 20 9.00002H12C11.4477 9.00002 11 8.55231 11 8.00002Z" fill="#2684FC"/>
</svg>
