<svg width="28" height="28" viewBox="0 0 28 28" fill="none" xmlns="http://www.w3.org/2000/svg">
<path fill-rule="evenodd" clip-rule="evenodd" d="M14 1.45837C10.9394 1.45837 8.45833 3.93946 8.45833 7.00004C8.45833 10.0606 10.9394 12.5417 14 12.5417C17.0606 12.5417 19.5417 10.0606 19.5417 7.00004C19.5417 3.93946 17.0606 1.45837 14 1.45837ZM10.2083 7.00004C10.2083 4.90596 11.9059 3.20837 14 3.20837C16.0941 3.20837 17.7917 4.90596 17.7917 7.00004C17.7917 9.09412 16.0941 10.7917 14 10.7917C11.9059 10.7917 10.2083 9.09412 10.2083 7.00004Z" fill="#9698A9"/>
<path fill-rule="evenodd" clip-rule="evenodd" d="M14 14.2917C11.3009 14.2917 8.81407 14.9052 6.97135 15.9418C5.15606 16.9629 3.79166 18.5104 3.79166 20.4167L3.79158 20.5357C3.79027 21.8911 3.78861 23.5924 5.28081 24.8075C6.01519 25.4055 7.04255 25.8308 8.43057 26.1117C9.82247 26.3935 11.6366 26.5417 14 26.5417C16.3634 26.5417 18.1775 26.3935 19.5694 26.1117C20.9574 25.8308 21.9848 25.4055 22.7192 24.8075C24.2114 23.5924 24.2097 21.8911 24.2084 20.5357L24.2083 20.4167C24.2083 18.5104 22.8439 16.9629 21.0286 15.9418C19.1859 14.9052 16.6991 14.2917 14 14.2917ZM5.54166 20.4167C5.54166 19.4235 6.2666 18.346 7.82931 17.467C9.36459 16.6034 11.5445 16.0417 14 16.0417C16.4555 16.0417 18.6354 16.6034 20.1707 17.467C21.7334 18.346 22.4583 19.4235 22.4583 20.4167C22.4583 21.9425 22.4113 22.8014 21.6141 23.4505C21.1819 23.8026 20.4592 24.1461 19.2222 24.3965C17.9891 24.6461 16.3033 24.7917 14 24.7917C11.6967 24.7917 10.0109 24.6461 8.77775 24.3965C7.54077 24.1461 6.81813 23.8026 6.38585 23.4505C5.58869 22.8014 5.54166 21.9425 5.54166 20.4167Z" fill="#9698A9"/>
</svg>
