<svg width="89" height="89" viewBox="0 0 89 89" fill="none" xmlns="http://www.w3.org/2000/svg">
<path d="M9.99346 8.29856L74.037 72.3421C75.2522 73.5573 75.9348 75.2056 75.9348 76.9242C75.9348 78.6428 75.2522 80.291 74.037 81.5063C72.8215 82.721 71.1733 83.4034 69.4548 83.4034C67.7364 83.4034 66.0882 82.721 64.8727 81.5063L49.2282 65.5923C48.2044 64.5527 47.6301 63.1524 47.629 61.6933V60.7321C47.6291 59.9953 47.4829 59.2659 47.1988 58.5861C46.9148 57.9064 46.4985 57.2898 45.9741 56.7723L43.9543 54.9071C43.2686 54.2744 42.4347 53.8243 41.5295 53.5983C40.6243 53.3723 39.6768 53.3777 38.7742 53.6138C37.3508 53.9853 35.8551 53.9781 34.4353 53.593C33.0156 53.2079 31.7213 52.4582 30.6807 51.4184L15.8306 36.5665C7.021 27.7569 3.77911 14.4538 9.99346 8.29856Z" stroke="#FAFAFA" stroke-width="4.875" stroke-linejoin="round"/>
<path d="M69.5312 5.5625L56.103 18.9907C55.0697 20.0238 54.25 21.2503 53.6908 22.6003C53.1316 23.9502 52.8437 25.397 52.8437 26.8582V29.4413C52.8438 29.8067 52.7718 30.1686 52.6319 30.5063C52.492 30.8439 52.287 31.1507 52.0285 31.409L50.0625 33.375M55.625 38.9375L57.591 36.9715C57.8493 36.713 58.1561 36.5079 58.4937 36.368C58.8313 36.2282 59.1932 36.1562 59.5587 36.1562H62.1418C63.603 36.1563 65.0498 35.8684 66.3997 35.3092C67.7496 34.75 68.9762 33.9303 70.0093 32.897L83.4375 19.4688M76.4844 12.5156L62.5781 26.4219M34.7656 63.9688L17.4315 81.4002C16.1276 82.7037 14.3593 83.436 12.5156 83.436C10.6719 83.436 8.90365 82.7037 7.59975 81.4002C6.29624 80.0963 5.56396 78.3281 5.56396 76.4844C5.56396 74.6407 6.29624 72.8724 7.59975 71.5685L22.25 57.0156" stroke="#FAFAFA" stroke-width="4.875" stroke-linecap="round" stroke-linejoin="round"/>
</svg>
