<svg width="319" height="256" viewBox="0 0 319 256" fill="none" xmlns="http://www.w3.org/2000/svg">
<g clip-path="url(#clip0_15_6)">
<path d="M81.525 130.517H81.5079C80.0798 130.534 78.6789 130.128 77.4817 129.352C76.3935 128.647 75.5072 127.673 74.9094 126.525C74.3117 125.377 74.0228 124.094 74.0711 122.801L76.8691 53.1234C76.941 51.2067 77.7567 49.3927 79.1441 48.0638C80.5316 46.735 82.3824 45.995 84.3064 46H243.459C248.54 45.9997 253.45 47.8347 257.278 51.1654L295.629 84.5261C300.562 87.4383 304.593 91.6516 307.278 96.7018C309.963 101.752 311.198 107.443 310.845 113.148C310.607 117.175 310.441 119.64 310.331 121.271C310.121 123.813 310.053 126.365 310.127 128.915L310.135 130.012L309.953 130.012L81.525 130.517Z" fill="#F0F0F0"/>
<path d="M219.776 108.629H89.3497C87.8419 108.628 86.3963 108.03 85.3302 106.967C84.264 105.904 83.6643 104.463 83.6626 102.96V64.3231C83.6643 62.8201 84.264 61.379 85.3302 60.3162C86.3963 59.2534 87.8419 58.6555 89.3497 58.6538H219.776C221.283 58.6555 222.729 59.2534 223.795 60.3162C224.861 61.379 225.461 62.8201 225.463 64.3231V102.96C225.461 104.463 224.861 105.904 223.795 106.967C222.729 108.03 221.283 108.628 219.776 108.629Z" fill="#E4E4E4"/>
<path d="M269.891 92.4285C269.612 92.4283 269.334 92.3901 269.066 92.3149L241.537 84.6402C240.905 84.4613 240.348 84.0844 239.948 83.5653C239.547 83.0462 239.325 82.4124 239.314 81.7576L239.099 65.0712C239.094 64.6626 239.172 64.2571 239.328 63.8791C239.483 63.5012 239.714 63.1585 240.006 62.8716C240.298 62.5847 240.645 62.3596 241.027 62.2098C241.408 62.0599 241.816 61.9884 242.226 61.9995L258.559 62.4458C259.348 62.4657 260.098 62.7921 260.65 63.3554L272.457 75.3712C272.744 75.6646 272.969 76.0128 273.118 76.3949C273.267 76.7771 273.337 77.1853 273.325 77.5951L272.927 89.4945C272.9 90.2801 272.569 91.0248 272.003 91.572C271.436 92.1191 270.68 92.4262 269.891 92.4285Z" fill="#FAFAFA"/>
<path d="M292.627 142.788C300.237 142.788 306.406 136.638 306.406 129.053C306.406 121.467 300.237 115.317 292.627 115.317C285.018 115.317 278.849 121.467 278.849 129.053C278.849 136.638 285.018 142.788 292.627 142.788Z" fill="#3F3D56"/>
<path d="M292.628 137.742C297.442 137.742 301.345 133.852 301.345 129.053C301.345 124.253 297.442 120.363 292.628 120.363C287.813 120.363 283.911 124.253 283.911 129.053C283.911 133.852 287.813 137.742 292.628 137.742Z" fill="#FAFAFA"/>
<path d="M135.301 142.928C142.911 142.928 149.079 136.779 149.079 129.193C149.079 121.607 142.911 115.457 135.301 115.457C127.691 115.457 121.523 121.607 121.523 129.193C121.523 136.779 127.691 142.928 135.301 142.928Z" fill="#3F3D56"/>
<path d="M135.301 137.882C140.115 137.882 144.018 133.992 144.018 129.193C144.018 124.393 140.115 120.503 135.301 120.503C130.487 120.503 126.584 124.393 126.584 129.193C126.584 133.992 130.487 137.882 135.301 137.882Z" fill="#FAFAFA"/>
<path d="M273.928 94.4734H272.803C271.824 94.4723 270.884 94.0838 270.192 93.3932C269.499 92.7026 269.109 91.7663 269.108 90.7896V82.6605C269.109 81.6838 269.499 80.7475 270.192 80.0569C270.884 79.3663 271.824 78.9778 272.803 78.9767H273.928C274.908 78.9778 275.847 79.3663 276.54 80.0569C277.233 80.7475 277.622 81.6838 277.624 82.6605V90.7896C277.622 91.7663 277.233 92.7026 276.54 93.3932C275.847 94.0838 274.908 94.4723 273.928 94.4734Z" fill="#3F3D56"/>
<path d="M156.65 80.4179H90.5916V82.0998H156.65V80.4179Z" fill="#F0F0F0"/>
<path d="M156.65 91.6305H90.5916V93.3124H156.65V91.6305Z" fill="#F0F0F0"/>
<path d="M108.728 105.37H103.948C103.425 105.37 102.923 105.163 102.553 104.794C102.183 104.425 101.976 103.925 101.976 103.404C101.976 102.882 102.183 102.382 102.553 102.013C102.923 101.644 103.425 101.437 103.948 101.437H108.728C109.252 101.437 109.753 101.644 110.123 102.013C110.493 102.382 110.701 102.882 110.701 103.404C110.701 103.925 110.493 104.425 110.123 104.794C109.753 105.163 109.252 105.37 108.728 105.37Z" fill="#F0F0F0"/>
<path d="M114.352 101.797C113.925 101.797 113.515 101.966 113.213 102.268C112.91 102.569 112.74 102.978 112.74 103.404C112.74 103.83 112.91 104.239 113.213 104.54C113.515 104.841 113.925 105.01 114.352 105.01H119.132C119.56 105.01 119.97 104.841 120.272 104.54C120.574 104.239 120.744 103.83 120.744 103.404C120.744 102.978 120.574 102.569 120.272 102.268C119.97 101.966 119.56 101.797 119.132 101.797H114.352Z" fill="#F0F0F0"/>
<path d="M129.537 105.37H124.756C124.233 105.37 123.731 105.163 123.361 104.794C122.992 104.425 122.784 103.925 122.784 103.404C122.784 102.882 122.992 102.382 123.361 102.013C123.731 101.644 124.233 101.437 124.756 101.437H129.537C130.06 101.437 130.561 101.644 130.931 102.013C131.301 102.382 131.509 102.882 131.509 103.404C131.509 103.925 131.301 104.425 130.931 104.794C130.561 105.163 130.06 105.37 129.537 105.37Z" fill="#F0F0F0"/>
<path d="M156.961 109.295H97.6137C96.98 109.293 96.373 109.04 95.9256 108.593C95.4783 108.145 95.2271 107.539 95.2271 106.908C95.2271 106.276 95.4783 105.67 95.9256 105.223C96.373 104.775 96.98 104.523 97.6137 104.521H156.961C157.594 104.523 158.201 104.775 158.649 105.223C159.096 105.67 159.347 106.276 159.347 106.908C159.347 107.539 159.096 108.145 158.649 108.593C158.201 109.04 157.594 109.293 156.961 109.295Z" fill="#F0F0F0"/>
<path d="M98.6697 91.9244H96.3841C96.1938 91.9242 96.0114 91.8488 95.8768 91.7147C95.7422 91.5805 95.6665 91.3987 95.6663 91.209V86.221C95.6664 86.0312 95.7421 85.8493 95.8767 85.7151C96.0113 85.5809 96.1938 85.5054 96.3841 85.5052C96.4231 85.5051 96.4604 85.4897 96.488 85.4622C96.5155 85.4348 96.531 85.3975 96.5311 85.3587V84.2809C96.5311 84.0176 96.636 83.7651 96.8227 83.5789C97.0095 83.3927 97.2628 83.2881 97.5269 83.2881C97.791 83.2881 98.0443 83.3927 98.2311 83.5789C98.4178 83.7651 98.5227 84.0176 98.5227 84.2809V85.3587C98.5228 85.3975 98.5383 85.4348 98.5658 85.4622C98.5934 85.4897 98.6307 85.5051 98.6697 85.5052C98.86 85.5054 99.0425 85.5809 99.1771 85.7151C99.3117 85.8493 99.3874 86.0312 99.3875 86.221V91.2089C99.3873 91.3987 99.3116 91.5805 99.177 91.7146C99.0425 91.8488 98.86 91.9242 98.6697 91.9244Z" fill="#F0F0F0"/>
<path d="M104.13 91.9244H101.845C101.655 91.9242 101.472 91.8487 101.337 91.7146C101.203 91.5805 101.127 91.3986 101.127 91.2089V86.2209C101.127 86.0312 101.203 85.8492 101.337 85.7151C101.472 85.5809 101.654 85.5054 101.845 85.5051C101.884 85.5051 101.921 85.4897 101.949 85.4622C101.976 85.4347 101.992 85.3975 101.992 85.3587V84.2809C101.993 84.0182 102.098 83.7667 102.285 83.5814C102.471 83.396 102.724 83.2919 102.988 83.2919C103.251 83.2919 103.504 83.396 103.69 83.5814C103.877 83.7667 103.982 84.0182 103.983 84.2809V85.3587C103.983 85.3975 103.999 85.4347 104.027 85.4622C104.054 85.4897 104.091 85.5051 104.13 85.5051C104.321 85.5054 104.503 85.5809 104.638 85.715C104.772 85.8492 104.848 86.0312 104.848 86.2209V91.2089C104.848 91.3986 104.772 91.5805 104.638 91.7146C104.503 91.8487 104.321 91.9242 104.13 91.9244Z" fill="#F0F0F0"/>
<path d="M139.205 81.4557H136.92C136.729 81.4554 136.547 81.38 136.412 81.2458C136.278 81.1117 136.202 80.9298 136.202 80.7401V75.7522C136.202 75.5625 136.278 75.3806 136.412 75.2464C136.547 75.1122 136.729 75.0367 136.92 75.0365C136.959 75.0364 136.996 75.021 137.023 74.9935C137.051 74.9661 137.067 74.9288 137.067 74.89V73.8122C137.068 73.5497 137.173 73.2984 137.36 73.1132C137.546 72.9281 137.799 72.8241 138.062 72.8241C138.326 72.8241 138.578 72.9281 138.765 73.1132C138.951 73.2984 139.057 73.5497 139.058 73.8122V74.89C139.058 74.9288 139.074 74.9661 139.101 74.9935C139.129 75.021 139.166 75.0364 139.205 75.0365C139.396 75.0367 139.578 75.1122 139.713 75.2464C139.847 75.3806 139.923 75.5625 139.923 75.7522V80.7401C139.923 80.9298 139.847 81.1117 139.713 81.2458C139.578 81.38 139.395 81.4554 139.205 81.4557Z" fill="#F0F0F0"/>
<path d="M144.666 81.4557H142.381C142.19 81.4555 142.008 81.38 141.873 81.2459C141.739 81.1117 141.663 80.9298 141.663 80.7401V75.7523C141.663 75.5625 141.739 75.3806 141.873 75.2464C142.008 75.1122 142.19 75.0367 142.381 75.0365C142.419 75.0365 142.457 75.021 142.484 74.9935C142.512 74.9661 142.527 74.9288 142.527 74.89V73.8122C142.528 73.5492 142.633 73.2972 142.82 73.1115C143.007 72.9257 143.26 72.8214 143.523 72.8214C143.787 72.8214 144.04 72.9257 144.227 73.1115C144.414 73.2972 144.519 73.5492 144.519 73.8122V74.89C144.519 74.9288 144.535 74.9661 144.562 74.9935C144.59 75.021 144.627 75.0365 144.666 75.0365C144.856 75.0367 145.039 75.1122 145.174 75.2464C145.308 75.3806 145.384 75.5625 145.384 75.7523V80.7401C145.384 80.9298 145.308 81.1117 145.173 81.2459C145.039 81.38 144.856 81.4555 144.666 81.4557Z" fill="#F0F0F0"/>
<path d="M212.308 67.9119H181.223V109.159H212.308V67.9119Z" fill="#F0F0F0"/>
<path d="M212.308 77.2423H181.223V78.0798H212.308V77.2423Z" fill="#E4E4E4"/>
<path d="M212.308 87.2923H181.223V88.1298H212.308V87.2923Z" fill="#E4E4E4"/>
<path d="M212.308 97.3422H181.223V98.1797H212.308V97.3422Z" fill="#E4E4E4"/>
<path d="M111.191 92.3925H108.856C108.533 92.3921 108.224 92.264 107.995 92.0364C107.767 91.8087 107.638 91.5 107.638 91.178V88.2222C107.638 87.9002 107.767 87.5915 107.995 87.3638C108.224 87.1362 108.533 87.0081 108.856 87.0077H111.191C111.514 87.0081 111.824 87.1362 112.052 87.3638C112.281 87.5915 112.409 87.9002 112.409 88.2222V91.178C112.409 91.5 112.281 91.8087 112.052 92.0364C111.824 92.264 111.514 92.3921 111.191 92.3925Z" fill="#F0F0F0"/>
<path d="M186.109 89.8691C185.953 89.8847 185.797 89.8884 185.641 89.88C185.614 89.8771 185.587 89.8847 185.566 89.9012C185.545 89.9178 185.532 89.9419 185.528 89.9683L185.23 92.2014C185.207 92.3635 185.14 92.5164 185.037 92.6438C184.952 92.7452 184.889 92.863 184.851 92.9897C184.814 93.1165 184.803 93.2496 184.819 93.3807V97.174C184.819 97.174 184.8 97.6798 185.19 97.6798C185.656 97.7383 186.129 97.7383 186.595 97.6798C186.595 97.6798 186.907 97.6209 186.907 97.1542V93.4191C186.931 93.2888 186.926 93.1549 186.893 93.0267C186.86 92.8984 186.799 92.7789 186.715 92.6765C186.615 92.5486 186.55 92.397 186.528 92.2366L186.217 89.9568C186.214 89.9312 186.201 89.9078 186.181 89.8916C186.16 89.8753 186.135 89.8672 186.109 89.8691Z" fill="#E4E4E4"/>
<path d="M189.889 89.8691C189.734 89.8847 189.577 89.8884 189.421 89.88C189.395 89.8771 189.368 89.8847 189.347 89.9012C189.326 89.9178 189.312 89.9419 189.309 89.9683L189.01 92.2014C188.987 92.3635 188.921 92.5164 188.818 92.6438C188.733 92.7452 188.669 92.863 188.632 92.9897C188.594 93.1165 188.584 93.2496 188.6 93.3807V97.174C188.6 97.174 188.581 97.6798 188.97 97.6798C189.437 97.7383 189.909 97.7383 190.376 97.6798C190.376 97.6798 190.688 97.6209 190.688 97.1542V93.4191C190.712 93.2888 190.707 93.1549 190.673 93.0267C190.64 92.8984 190.579 92.7789 190.495 92.6765C190.395 92.5486 190.331 92.397 190.308 92.2366L189.998 89.9568C189.994 89.9312 189.981 89.9078 189.961 89.8916C189.941 89.8753 189.915 89.8672 189.889 89.8691Z" fill="#E4E4E4"/>
<path d="M193.67 89.8691C193.514 89.8847 193.358 89.8884 193.202 89.88C193.175 89.8771 193.148 89.8847 193.127 89.9012C193.106 89.9178 193.093 89.9419 193.089 89.9683L192.791 92.2014C192.768 92.3635 192.701 92.5164 192.598 92.6438C192.513 92.7452 192.45 92.863 192.412 92.9897C192.375 93.1165 192.364 93.2496 192.38 93.3807V97.174C192.38 97.174 192.361 97.6798 192.751 97.6798C193.218 97.7383 193.69 97.7383 194.156 97.6798C194.156 97.6798 194.468 97.6209 194.468 97.1542V93.4191C194.492 93.2888 194.487 93.1549 194.454 93.0267C194.421 92.8984 194.36 92.7789 194.276 92.6765C194.176 92.5486 194.112 92.397 194.089 92.2366L193.779 89.9568C193.775 89.9312 193.762 89.9078 193.742 89.8916C193.721 89.8753 193.696 89.8672 193.67 89.8691Z" fill="#E4E4E4"/>
<path d="M186.109 79.8192C185.953 79.8348 185.797 79.8384 185.641 79.8301C185.614 79.8272 185.587 79.8348 185.566 79.8513C185.545 79.8679 185.532 79.8919 185.528 79.9184L185.23 82.1515C185.207 82.3136 185.14 82.4665 185.037 82.5939C184.952 82.6953 184.889 82.813 184.851 82.9398C184.814 83.0666 184.803 83.1996 184.819 83.3308V87.1241C184.819 87.1241 184.8 87.6299 185.19 87.6299C185.656 87.6883 186.129 87.6883 186.595 87.6299C186.595 87.6299 186.907 87.571 186.907 87.1043V83.3692C186.931 83.2389 186.926 83.105 186.893 82.9767C186.86 82.8485 186.799 82.729 186.715 82.6266C186.615 82.4987 186.55 82.3471 186.528 82.1867L186.217 79.9069C186.214 79.8813 186.201 79.8579 186.181 79.8416C186.16 79.8253 186.135 79.8173 186.109 79.8192Z" fill="#E4E4E4"/>
<path d="M189.889 79.8192C189.734 79.8348 189.577 79.8384 189.421 79.8301C189.395 79.8272 189.368 79.8348 189.347 79.8513C189.326 79.8679 189.312 79.8919 189.309 79.9184L189.01 82.1515C188.987 82.3136 188.921 82.4665 188.818 82.5939C188.733 82.6953 188.669 82.813 188.632 82.9398C188.594 83.0666 188.584 83.1996 188.6 83.3308V87.1241C188.6 87.1241 188.581 87.6299 188.97 87.6299C189.437 87.6883 189.909 87.6883 190.376 87.6299C190.376 87.6299 190.688 87.571 190.688 87.1043V83.3692C190.712 83.2389 190.707 83.105 190.673 82.9767C190.64 82.8485 190.579 82.729 190.495 82.6266C190.395 82.4987 190.331 82.3471 190.308 82.1867L189.998 79.9069C189.994 79.8813 189.981 79.8579 189.961 79.8416C189.941 79.8253 189.915 79.8173 189.889 79.8192Z" fill="#E4E4E4"/>
<path d="M193.67 79.8192C193.514 79.8348 193.358 79.8384 193.202 79.8301C193.175 79.8272 193.148 79.8348 193.127 79.8513C193.106 79.8679 193.093 79.8919 193.089 79.9184L192.791 82.1515C192.768 82.3136 192.701 82.4665 192.598 82.5939C192.513 82.6953 192.45 82.813 192.412 82.9398C192.375 83.0666 192.364 83.1996 192.38 83.3308V87.1241C192.38 87.1241 192.361 87.6299 192.751 87.6299C193.218 87.6883 193.69 87.6883 194.156 87.6299C194.156 87.6299 194.468 87.571 194.468 87.1043V83.3692C194.492 83.2389 194.487 83.105 194.454 82.9767C194.421 82.8485 194.36 82.729 194.276 82.6266C194.176 82.4987 194.112 82.3471 194.089 82.1867L193.779 79.9069C193.775 79.8813 193.762 79.8579 193.742 79.8416C193.721 79.8253 193.696 79.8173 193.67 79.8192Z" fill="#E4E4E4"/>
<path d="M201.441 79.8192C201.285 79.8348 201.129 79.8384 200.973 79.8301C200.946 79.8272 200.919 79.8348 200.898 79.8513C200.877 79.8679 200.864 79.8919 200.86 79.9184L200.562 82.1515C200.539 82.3136 200.472 82.4665 200.369 82.5939C200.284 82.6953 200.221 82.813 200.183 82.9398C200.146 83.0666 200.135 83.1996 200.151 83.3308V87.1241C200.151 87.1241 200.132 87.6299 200.522 87.6299C200.989 87.6883 201.461 87.6883 201.927 87.6299C201.927 87.6299 202.239 87.571 202.239 87.1043V83.3692C202.263 83.2389 202.258 83.105 202.225 82.9767C202.192 82.8485 202.131 82.729 202.047 82.6266C201.947 82.4987 201.883 82.3471 201.86 82.1867L201.55 79.9069C201.546 79.8813 201.533 79.8579 201.513 79.8416C201.492 79.8253 201.467 79.8173 201.441 79.8192Z" fill="#E4E4E4"/>
<path d="M205.221 79.8192C205.066 79.8348 204.909 79.8384 204.753 79.8301C204.727 79.8272 204.7 79.8348 204.679 79.8513C204.658 79.8679 204.644 79.8919 204.641 79.9184L204.342 82.1515C204.319 82.3136 204.253 82.4665 204.15 82.5939C204.065 82.6953 204.001 82.813 203.964 82.9398C203.927 83.0666 203.916 83.1996 203.932 83.3308V87.1241C203.932 87.1241 203.913 87.6299 204.302 87.6299C204.769 87.6883 205.241 87.6883 205.708 87.6299C205.708 87.6299 206.02 87.571 206.02 87.1043V83.3692C206.044 83.2389 206.039 83.105 206.005 82.9767C205.972 82.8485 205.911 82.729 205.827 82.6266C205.727 82.4987 205.663 82.3471 205.64 82.1867L205.33 79.9069C205.327 79.8813 205.313 79.8579 205.293 79.8416C205.273 79.8253 205.247 79.8173 205.221 79.8192Z" fill="#E4E4E4"/>
<path d="M209.002 79.8192C208.846 79.8348 208.69 79.8384 208.534 79.8301C208.507 79.8272 208.481 79.8348 208.459 79.8513C208.438 79.8679 208.425 79.8919 208.421 79.9184L208.123 82.1515C208.1 82.3136 208.033 82.4665 207.93 82.5939C207.845 82.6953 207.782 82.813 207.744 82.9398C207.707 83.0666 207.696 83.1996 207.712 83.3308V87.1241C207.712 87.1241 207.693 87.6299 208.083 87.6299C208.55 87.6883 209.022 87.6883 209.488 87.6299C209.488 87.6299 209.8 87.571 209.8 87.1043V83.3692C209.824 83.2389 209.819 83.105 209.786 82.9767C209.753 82.8485 209.692 82.729 209.608 82.6266C209.508 82.4987 209.444 82.3471 209.421 82.1867L209.111 79.9069C209.107 79.8813 209.094 79.8579 209.074 79.8416C209.054 79.8253 209.028 79.8173 209.002 79.8192Z" fill="#E4E4E4"/>
<path d="M192.62 69.9786C192.464 69.9942 192.308 69.9979 192.152 69.9895C192.125 69.9866 192.098 69.9942 192.077 70.0107C192.056 70.0273 192.043 70.0514 192.039 70.0778L191.74 72.3109C191.718 72.473 191.651 72.6259 191.548 72.7533C191.463 72.8547 191.4 72.9725 191.362 73.0992C191.325 73.226 191.314 73.3591 191.33 73.4902V77.2835C191.33 77.2835 191.311 77.7893 191.701 77.7893C192.167 77.8478 192.639 77.8478 193.106 77.7893C193.106 77.7893 193.418 77.7304 193.418 77.2637V73.5286C193.442 73.3983 193.437 73.2644 193.404 73.1362C193.37 73.0079 193.31 72.8884 193.225 72.786C193.126 72.6581 193.061 72.5065 193.038 72.3461L192.728 70.0663C192.725 70.0407 192.712 70.0173 192.691 70.001C192.671 69.9848 192.646 69.9767 192.62 69.9786Z" fill="#E4E4E4"/>
<path d="M196.4 69.9786C196.245 69.9942 196.088 69.9979 195.932 69.9895C195.905 69.9866 195.879 69.9942 195.858 70.0107C195.837 70.0273 195.823 70.0514 195.82 70.0778L195.521 72.3109C195.498 72.473 195.431 72.6259 195.328 72.7533C195.243 72.8547 195.18 72.9725 195.143 73.0992C195.105 73.226 195.094 73.3591 195.111 73.4902V77.2835C195.111 77.2835 195.091 77.7893 195.481 77.7893C195.948 77.8478 196.42 77.8478 196.886 77.7893C196.886 77.7893 197.198 77.7304 197.198 77.2637V73.5286C197.222 73.3983 197.217 73.2644 197.184 73.1362C197.151 73.0079 197.09 72.8884 197.006 72.786C196.906 72.6581 196.842 72.5065 196.819 72.3461L196.509 70.0663C196.505 70.0407 196.492 70.0173 196.472 70.001C196.452 69.9848 196.426 69.9767 196.4 69.9786Z" fill="#E4E4E4"/>
<path d="M200.181 69.9786C200.025 69.9942 199.869 69.9979 199.713 69.9895C199.686 69.9866 199.659 69.9942 199.638 70.0107C199.617 70.0273 199.604 70.0514 199.6 70.0778L199.302 72.3109C199.279 72.473 199.212 72.6259 199.109 72.7533C199.024 72.8547 198.961 72.9725 198.923 73.0992C198.886 73.226 198.875 73.3591 198.891 73.4902V77.2835C198.891 77.2835 198.872 77.7893 199.262 77.7893C199.728 77.8478 200.2 77.8478 200.667 77.7893C200.667 77.7893 200.979 77.7304 200.979 77.2637V73.5286C201.003 73.3983 200.998 73.2644 200.965 73.1362C200.931 73.0079 200.871 72.8884 200.786 72.786C200.687 72.6581 200.622 72.5065 200.599 72.3461L200.289 70.0663C200.286 70.0407 200.273 70.0173 200.252 70.001C200.232 69.9848 200.207 69.9767 200.181 69.9786Z" fill="#E4E4E4"/>
<path d="M318.639 143.169H58.4592C58.3635 143.169 58.2718 143.131 58.2041 143.063C58.1364 142.996 58.0984 142.904 58.0984 142.809C58.0984 142.713 58.1364 142.622 58.2041 142.554C58.2718 142.487 58.3635 142.449 58.4592 142.449H318.639C318.735 142.449 318.827 142.487 318.894 142.554C318.962 142.622 319 142.713 319 142.809C319 142.904 318.962 142.996 318.894 143.063C318.827 143.131 318.735 143.169 318.639 143.169Z" fill="#CACACA"/>
<path d="M234.894 161.911C235.131 161.752 235.33 161.543 235.477 161.299C235.625 161.055 235.716 160.782 235.746 160.498C235.776 160.215 235.743 159.929 235.65 159.66C235.556 159.391 235.405 159.145 235.206 158.94L238.336 152.761L234.751 153.175L232.329 158.98C232.007 159.336 231.826 159.797 231.822 160.276C231.817 160.756 231.99 161.22 232.306 161.581C232.622 161.943 233.06 162.176 233.537 162.237C234.014 162.297 234.497 162.182 234.894 161.911Z" fill="#FFB7B7"/>
<path d="M259.992 205.683L257.172 205.683L255.83 194.839H259.992L259.992 205.683Z" fill="#FFB7B7"/>
<path d="M260.711 208.409L251.617 208.408V208.294C251.617 207.358 251.99 206.46 252.654 205.799C253.318 205.137 254.218 204.765 255.157 204.765L260.711 204.765L260.711 208.409Z" fill="#2F2E41"/>
<path d="M244.579 205.683L241.759 205.683L240.417 194.839H244.579L244.579 205.683Z" fill="#FFB7B7"/>
<path d="M244.608 208.409L235.514 208.408V208.294C235.514 207.358 235.887 206.46 236.551 205.799C237.215 205.137 238.115 204.765 239.054 204.765L244.608 204.765L244.608 208.409Z" fill="#2F2E41"/>
<path d="M244.348 159.882L241.587 166.222L239.31 202.662L245.061 202.432L246.632 185.061L251.477 169.589L254.263 186.838L255.413 201.974L260.172 202.179L262.068 159.882H244.348Z" fill="#2F2E41"/>
<path d="M258.147 128.598L250.146 128.797L245.448 131.201L245.191 148.937L242.261 161.182C242.261 161.182 260.566 162.438 263.096 160.603L260.106 146.614L264.117 131.496L258.147 128.598Z" fill="#1FA7B0"/>
<path d="M246.684 131.495L245.939 130.994C245.939 130.994 242.854 131.916 241.941 136.017C241.941 136.017 241.244 138.075 240.937 139.49C240.586 141.113 232.83 156.019 232.83 156.019L237.474 157.347L245.987 143.622L246.684 131.495Z" fill="#1FA7B0"/>
<path d="M263.992 164.185C263.808 163.967 263.674 163.712 263.6 163.437C263.526 163.162 263.514 162.874 263.564 162.593C263.613 162.313 263.724 162.047 263.888 161.814C264.052 161.581 264.266 161.386 264.513 161.244L263.215 154.444L266.545 155.828L267.268 162.073C267.48 162.504 267.526 162.997 267.397 163.459C267.269 163.921 266.975 164.32 266.571 164.58C266.167 164.84 265.681 164.944 265.206 164.871C264.731 164.799 264.299 164.555 263.992 164.185Z" fill="#FFB7B7"/>
<path d="M262.913 131.708L263.768 131.43C263.768 131.43 266.479 133.165 266.221 137.358C266.221 137.358 266.322 139.528 266.225 140.972C266.114 142.629 267.606 159.089 267.606 159.089H262.775L260.704 144.183L262.913 131.708Z" fill="#1FA7B0"/>
<path d="M260.111 121.157C260.111 122.25 259.786 123.319 259.176 124.229C258.567 125.138 257.7 125.846 256.687 126.265C255.674 126.683 254.558 126.793 253.482 126.58C252.407 126.366 251.418 125.84 250.643 125.066C249.867 124.293 249.339 123.308 249.125 122.235C248.911 121.163 249.02 120.051 249.44 119.041C249.86 118.031 250.571 117.167 251.483 116.559C252.395 115.952 253.467 115.628 254.564 115.628C256.032 115.624 257.44 116.202 258.481 117.233C259.521 118.265 260.107 119.666 260.111 121.129C260.111 121.138 260.111 121.148 260.111 121.157Z" fill="#FFB7B7"/>
<path d="M249.037 113.73C249.686 112.337 250.944 112.613 252.043 113.085C253.436 112.777 254.76 111.855 256.261 112.4C257.739 114.543 262.701 113.913 261.645 117.401C261.644 118.237 263.223 117.751 262.947 119.12C263.784 121.754 259.927 126.744 257.714 125.694C258.261 124.693 259.512 122.421 257.615 122.196C253.534 125.981 257.194 114.988 252.066 118.185C250.369 119.734 248.044 115.279 249.037 113.73Z" fill="#2F2E41"/>
<path d="M228.193 145.218C228.116 145.297 228.045 145.382 227.981 145.473L218.026 145.23L216.865 143.115L213.433 144.444L215.124 148.389C215.26 148.707 215.497 148.973 215.798 149.146C216.099 149.32 216.448 149.391 216.793 149.349L228.041 147.995C228.306 148.33 228.667 148.576 229.076 148.701C229.485 148.826 229.923 148.824 230.331 148.695C230.739 148.566 231.098 148.317 231.36 147.98C231.623 147.642 231.776 147.233 231.799 146.807C231.822 146.381 231.715 145.958 231.492 145.594C231.268 145.231 230.939 144.943 230.547 144.771C230.156 144.598 229.721 144.548 229.3 144.628C228.88 144.708 228.494 144.914 228.193 145.218Z" fill="#9F616A"/>
<path d="M195.742 205.486H199.015L200.572 192.9L195.741 192.9L195.742 205.486Z" fill="#9F616A"/>
<path d="M194.907 204.42L201.353 204.42C202.443 204.42 203.488 204.852 204.258 205.62C205.029 206.388 205.462 207.429 205.462 208.515V208.648L194.907 208.649L194.907 204.42Z" fill="#2F2E41"/>
<path d="M225.464 205.413L228.474 204.131L224.947 191.947L220.504 193.839L225.464 205.413Z" fill="#9F616A"/>
<path d="M224.276 204.76L230.204 202.236C231.206 201.809 232.337 201.797 233.348 202.201C234.359 202.606 235.168 203.394 235.596 204.393L235.648 204.515L225.943 208.649L224.276 204.76Z" fill="#2F2E41"/>
<path d="M211.652 147.944L211.889 151.767L204.97 152.506L197.73 153.278L199.861 147.472L211.652 147.944Z" fill="#9F616A"/>
<path d="M211.895 149.316C211.817 149.285 204.002 146.255 199.202 148.733L199.084 148.794L198.126 144.095L197.581 133.993L201.131 132.321L202.109 130.138L208.768 129.745L210.136 131.616L214.795 133.138L212.01 149.361L211.895 149.316Z" fill="#3F3D56"/>
<path d="M212.14 140.198L212.964 133.746L214.839 133.177L214.87 133.189C215.228 133.355 215.538 133.608 215.773 133.924C216.007 134.241 216.158 134.611 216.212 135C216.48 136.35 218.497 144.752 218.517 144.837L218.537 144.921L213.798 146.811L212.14 140.198Z" fill="#3F3D56"/>
<path d="M223.026 203.201L229.334 201.911L219.252 174.179L215.802 164.719C215.802 164.719 213.613 157.135 212.625 154.2L212.028 150.262L197.902 151.82C197.902 151.82 193.957 157.596 195.156 167.01L194.614 202.395L200.922 202.717L206.205 167.03L215.478 186.594C215.478 186.594 218.401 194.942 220.492 196.752L223.026 203.201Z" fill="#2F2E41"/>
<path d="M210.555 128.231H199.246C199.013 128.231 198.79 128.139 198.626 127.975C198.461 127.811 198.369 127.588 198.368 127.356V122.497C198.368 120.77 199.057 119.113 200.282 117.892C201.507 116.671 203.168 115.985 204.901 115.985C206.633 115.985 208.295 116.671 209.52 117.892C210.745 119.113 211.433 120.77 211.433 122.497V127.356C211.433 127.588 211.34 127.811 211.176 127.975C211.011 128.139 210.788 128.231 210.555 128.231Z" fill="#2F2E41"/>
<path d="M206.243 128.118C208.888 128.118 211.032 125.98 211.032 123.344C211.032 120.707 208.888 118.569 206.243 118.569C203.598 118.569 201.454 120.707 201.454 123.344C201.454 125.98 203.598 128.118 206.243 128.118Z" fill="#9F616A"/>
<path d="M212.978 122.983H206.063L205.992 121.993L205.637 122.983H204.572L204.432 121.021L203.729 122.983H201.669V122.886C201.67 121.52 202.215 120.211 203.184 119.245C204.153 118.279 205.466 117.736 206.836 117.734H207.811C209.181 117.736 210.494 118.279 211.463 119.245C212.432 120.211 212.977 121.52 212.978 122.886L212.978 122.983Z" fill="#2F2E41"/>
<path d="M206.006 129.138C205.954 129.138 205.902 129.134 205.851 129.125L200.787 128.234V119.891H206.361L206.223 120.051C204.303 122.284 205.75 125.904 206.783 127.863C206.859 128.006 206.893 128.168 206.881 128.33C206.869 128.492 206.811 128.647 206.714 128.778C206.633 128.889 206.527 128.98 206.404 129.043C206.281 129.106 206.144 129.138 206.006 129.138Z" fill="#2F2E41"/>
<path d="M233.71 144.39C233.395 144.421 233.077 144.429 232.76 144.412C232.706 144.406 232.652 144.421 232.609 144.455C232.567 144.488 232.539 144.537 232.532 144.591L231.926 149.123C231.879 149.451 231.744 149.762 231.535 150.02C231.363 150.226 231.234 150.465 231.158 150.722C231.082 150.979 231.06 151.249 231.093 151.516V159.213C231.093 159.213 231.054 160.24 231.845 160.24C232.792 160.358 233.75 160.358 234.697 160.24C234.697 160.24 235.33 160.12 235.33 159.173V151.594C235.378 151.329 235.368 151.057 235.301 150.797C235.233 150.537 235.11 150.294 234.939 150.087C234.737 149.827 234.606 149.519 234.56 149.194L233.93 144.568C233.923 144.516 233.897 144.468 233.856 144.435C233.815 144.402 233.763 144.386 233.71 144.39Z" fill="#FAFAFA"/>
<path d="M233.268 160.458C232.79 160.458 232.312 160.429 231.837 160.369C231.731 160.372 231.625 160.353 231.527 160.312C231.429 160.272 231.34 160.213 231.266 160.137C231.058 159.873 230.951 159.544 230.963 159.208L230.963 151.524C230.929 151.241 230.954 150.955 231.035 150.682C231.116 150.409 231.252 150.156 231.435 149.937C231.629 149.697 231.754 149.409 231.797 149.104L232.403 144.574C232.415 144.487 232.46 144.408 232.53 144.353C232.599 144.299 232.687 144.273 232.774 144.283C233.082 144.299 233.391 144.291 233.697 144.26L233.701 144.26C233.786 144.254 233.871 144.28 233.938 144.334C234.004 144.388 234.048 144.465 234.06 144.55L234.689 149.177C234.732 149.479 234.854 149.765 235.042 150.007C235.223 150.227 235.354 150.484 235.427 150.76C235.499 151.036 235.51 151.324 235.461 151.605V159.173C235.461 160.216 234.728 160.366 234.721 160.367C234.239 160.428 233.754 160.458 233.268 160.458ZM232.743 144.541C232.723 144.54 232.704 144.546 232.689 144.559C232.674 144.571 232.664 144.588 232.661 144.607L232.055 149.14C232.005 149.492 231.861 149.825 231.637 150.102C231.475 150.294 231.356 150.518 231.284 150.758C231.213 150.998 231.192 151.251 231.223 151.5L231.224 151.516V159.213C231.214 159.48 231.295 159.742 231.455 159.957C231.505 160.008 231.566 160.049 231.634 160.075C231.701 160.101 231.773 160.113 231.845 160.11L231.862 160.111C232.798 160.228 233.745 160.228 234.681 160.111C234.693 160.108 235.2 159.992 235.2 159.173L235.202 151.57C235.247 151.324 235.238 151.072 235.175 150.83C235.112 150.588 234.997 150.362 234.838 150.169C234.621 149.891 234.481 149.561 234.431 149.212L233.801 144.585C233.799 144.566 233.789 144.549 233.774 144.537C233.759 144.524 233.74 144.518 233.721 144.519C233.4 144.551 233.076 144.559 232.753 144.541L232.743 144.541Z" fill="#3F3D56"/>
<path d="M233.714 151.653H232.754C231.958 151.653 231.313 152.296 231.313 153.089V156.692C231.313 157.484 231.958 158.127 232.754 158.127H233.714C234.509 158.127 235.154 157.484 235.154 156.692V153.089C235.154 152.296 234.509 151.653 233.714 151.653Z" fill="#1FA7B0"/>
<path d="M228.547 136.342C228.231 136.374 227.913 136.381 227.597 136.364C227.543 136.358 227.488 136.374 227.446 136.407C227.403 136.441 227.375 136.49 227.368 136.543L226.762 141.075C226.716 141.404 226.581 141.714 226.371 141.973C226.199 142.178 226.071 142.417 225.995 142.675C225.919 142.932 225.897 143.202 225.93 143.468V151.166C225.93 151.166 225.891 152.192 226.682 152.192C227.628 152.311 228.586 152.311 229.533 152.192C229.533 152.192 230.167 152.073 230.167 151.125V143.546C230.215 143.282 230.205 143.01 230.137 142.75C230.07 142.489 229.946 142.247 229.776 142.039C229.573 141.779 229.443 141.472 229.396 141.146L228.767 136.52C228.76 136.468 228.733 136.421 228.692 136.388C228.651 136.355 228.599 136.338 228.547 136.342Z" fill="#FAFAFA"/>
<path d="M228.105 152.411C227.626 152.411 227.148 152.381 226.673 152.322C226.567 152.324 226.462 152.305 226.364 152.265C226.265 152.225 226.177 152.165 226.103 152.089C225.895 151.825 225.787 151.496 225.8 151.161L225.8 143.476C225.766 143.193 225.79 142.907 225.872 142.634C225.953 142.361 226.089 142.108 226.272 141.889C226.465 141.649 226.59 141.362 226.634 141.057L227.239 136.526C227.251 136.439 227.297 136.36 227.366 136.306C227.435 136.251 227.523 136.226 227.611 136.235C227.919 136.251 228.227 136.244 228.534 136.213L228.537 136.212C228.623 136.206 228.708 136.233 228.774 136.287C228.841 136.341 228.884 136.418 228.896 136.502L229.526 141.129C229.569 141.432 229.691 141.718 229.879 141.959C230.06 142.18 230.191 142.437 230.263 142.713C230.335 142.989 230.347 143.277 230.297 143.558V151.125C230.297 152.168 229.565 152.318 229.557 152.32C229.076 152.38 228.59 152.411 228.105 152.411ZM227.579 136.493C227.56 136.492 227.541 136.499 227.526 136.511C227.511 136.523 227.501 136.541 227.498 136.56L226.892 141.092C226.842 141.445 226.697 141.777 226.473 142.054C226.312 142.247 226.192 142.47 226.121 142.71C226.05 142.951 226.029 143.203 226.059 143.452L226.06 143.468V151.166C226.05 151.433 226.132 151.695 226.291 151.909C226.342 151.961 226.403 152.001 226.47 152.027C226.537 152.054 226.61 152.066 226.682 152.062L226.698 152.063C227.634 152.18 228.581 152.18 229.517 152.063C229.529 152.06 230.036 151.945 230.036 151.125L230.038 143.523C230.084 143.277 230.074 143.024 230.012 142.782C229.949 142.54 229.834 142.315 229.675 142.121C229.458 141.843 229.317 141.513 229.267 141.165L228.638 136.537C228.635 136.518 228.625 136.501 228.61 136.489C228.596 136.477 228.577 136.471 228.558 136.472C228.236 136.504 227.912 136.511 227.59 136.494L227.579 136.493Z" fill="#3F3D56"/>
<path d="M228.551 143.606H227.59C226.795 143.606 226.15 144.248 226.15 145.041V148.644C226.15 149.437 226.795 150.08 227.59 150.08H228.551C229.346 150.08 229.991 149.437 229.991 148.644V145.041C229.991 144.248 229.346 143.606 228.551 143.606Z" fill="#1FA7B0"/>
<path d="M211.075 153.907H206.593C206.177 153.907 205.778 153.742 205.484 153.449C205.19 153.156 205.024 152.758 205.024 152.343C205.024 151.929 205.19 151.531 205.484 151.238C205.778 150.944 206.177 150.78 206.593 150.78H211.075C211.491 150.78 211.89 150.944 212.184 151.238C212.478 151.531 212.644 151.929 212.644 152.343C212.644 152.758 212.478 153.156 212.184 153.449C211.89 153.742 211.491 153.907 211.075 153.907Z" fill="#E4E4E4"/>
<path d="M212.644 153.014H205.024C204.788 153.012 204.561 152.918 204.394 152.75C204.227 152.583 204.133 152.356 204.133 152.12C204.133 151.884 204.227 151.657 204.394 151.49C204.561 151.322 204.788 151.228 205.024 151.226H212.644C212.762 151.226 212.879 151.248 212.988 151.293C213.097 151.338 213.197 151.403 213.28 151.486C213.364 151.569 213.431 151.668 213.476 151.777C213.521 151.886 213.545 152.002 213.545 152.12C213.545 152.238 213.521 152.354 213.476 152.463C213.431 152.572 213.364 152.67 213.28 152.753C213.197 152.837 213.097 152.902 212.988 152.947C212.879 152.992 212.762 153.014 212.644 153.014Z" fill="#CACACA"/>
<path d="M211.739 156.823H205.802C205.153 156.822 204.53 156.564 204.071 156.106C203.613 155.648 203.355 155.027 203.355 154.38C203.355 153.733 203.613 153.112 204.071 152.654C204.53 152.196 205.153 151.939 205.802 151.938H211.739C212.389 151.938 213.012 152.195 213.471 152.653C213.931 153.111 214.189 153.733 214.189 154.38C214.189 155.028 213.931 155.649 213.471 156.107C213.012 156.565 212.389 156.823 211.739 156.823Z" fill="#E4E4E4"/>
<path d="M203.567 153.134C203.456 153.131 203.345 153.137 203.235 153.152L196.645 145.71L197.411 143.423L194.1 141.818L192.348 145.736C192.207 146.052 192.172 146.406 192.249 146.744C192.327 147.082 192.512 147.386 192.777 147.61L201.42 154.91C201.354 155.332 201.419 155.764 201.605 156.148C201.791 156.532 202.09 156.851 202.462 157.061C202.835 157.272 203.262 157.365 203.689 157.327C204.115 157.289 204.52 157.123 204.849 156.851C205.178 156.578 205.417 156.212 205.532 155.801C205.648 155.39 205.635 154.954 205.496 154.551C205.357 154.147 205.098 153.796 204.753 153.542C204.408 153.289 203.995 153.147 203.567 153.134Z" fill="#9F616A"/>
<path d="M193.503 142.921L196.08 135.606C196.369 134.743 196.732 134.219 197.158 134.048C197.242 134.011 197.333 133.991 197.425 133.99C197.517 133.989 197.608 134.007 197.693 134.043L198.848 135.498L199.92 139.988L197.171 146.434L193.503 142.921Z" fill="#3F3D56"/>
<path d="M45.3731 122.843H41.7645C41.4295 122.843 41.1083 122.711 40.8714 122.475C40.6345 122.239 40.5015 121.918 40.5015 121.584C40.5015 121.25 40.6345 120.93 40.8714 120.694C41.1083 120.458 41.4295 120.325 41.7645 120.325H45.3731C45.708 120.325 46.0293 120.458 46.2662 120.694C46.503 120.93 46.6361 121.25 46.6361 121.584C46.6361 121.918 46.503 122.239 46.2662 122.475C46.0293 122.711 45.708 122.843 45.3731 122.843Z" fill="#E4E4E4"/>
<path d="M46.6361 122.124H40.5015C40.3101 122.124 40.1265 122.048 39.9912 121.913C39.8558 121.778 39.7798 121.595 39.7798 121.405C39.7798 121.214 39.8558 121.031 39.9912 120.896C40.1265 120.761 40.3101 120.685 40.5015 120.685H46.6361C46.8275 120.685 47.0111 120.761 47.1465 120.896C47.2818 121.031 47.3578 121.214 47.3578 121.405C47.3578 121.595 47.2818 121.778 47.1465 121.913C47.0111 122.048 46.8275 122.124 46.6361 122.124Z" fill="#CACACA"/>
<path d="M45.9079 125.191H41.1276C40.6049 125.19 40.1039 124.983 39.7345 124.614C39.3652 124.245 39.1577 123.746 39.1577 123.224C39.1577 122.703 39.3652 122.204 39.7345 121.835C40.1039 121.466 40.6049 121.259 41.1276 121.258H45.9079C46.431 121.258 46.9327 121.465 47.3027 121.834C47.6726 122.203 47.8804 122.703 47.8804 123.224C47.8804 123.746 47.6726 124.246 47.3027 124.615C46.9327 124.984 46.431 125.191 45.9079 125.191Z" fill="#E4E4E4"/>
<path d="M60.1685 126.081H56.5599C56.2249 126.081 55.9037 125.948 55.6668 125.712C55.4299 125.476 55.2969 125.156 55.2969 124.822C55.2969 124.488 55.4299 124.168 55.6668 123.932C55.9037 123.696 56.2249 123.563 56.5599 123.563H60.1685C60.5035 123.563 60.8247 123.696 61.0616 123.932C61.2984 124.168 61.4315 124.488 61.4315 124.822C61.4315 125.156 61.2984 125.476 61.0616 125.712C60.8247 125.948 60.5035 126.081 60.1685 126.081Z" fill="#E4E4E4"/>
<path d="M61.4313 125.362H55.2967C55.1053 125.362 54.9217 125.286 54.7863 125.151C54.651 125.016 54.575 124.833 54.575 124.642C54.575 124.451 54.651 124.268 54.7863 124.133C54.9217 123.998 55.1053 123.923 55.2967 123.923H61.4313C61.6227 123.923 61.8063 123.998 61.9416 124.133C62.077 124.268 62.153 124.451 62.153 124.642C62.153 124.833 62.077 125.016 61.9416 125.151C61.8063 125.286 61.6227 125.362 61.4313 125.362Z" fill="#CACACA"/>
<path d="M60.703 128.429H55.9228C55.4001 128.428 54.899 128.22 54.5297 127.852C54.1603 127.483 53.9529 126.983 53.9529 126.462C53.9529 125.941 54.1603 125.441 54.5297 125.073C54.899 124.704 55.4001 124.496 55.9228 124.496H60.703C61.2262 124.496 61.7279 124.703 62.0978 125.072C62.4678 125.44 62.6756 125.941 62.6756 126.462C62.6756 126.984 62.4678 127.484 62.0978 127.853C61.7279 128.221 61.2262 128.429 60.703 128.429Z" fill="#E4E4E4"/>
<path d="M34.543 132.309C33.6115 138.344 80.7941 138.344 79.8589 132.308C80.7904 126.274 33.6078 126.274 34.543 132.309Z" fill="#F0F0F0"/>
<path d="M58.5338 134.615H55.8682V169.774H58.5338V134.615Z" fill="#F0F0F0"/>
<path d="M41.62 130.084C41.4635 129.78 41.2397 129.516 40.9656 129.311C40.6914 129.106 40.3741 128.965 40.0375 128.9C39.701 128.836 39.3541 128.848 39.023 128.936C38.692 129.025 38.3855 129.187 38.1266 129.411L28.341 127.101L27.6193 124.714L23.7156 125.353C24.2441 126.977 24.0317 131.138 26.5447 131.18L37.6157 132.153C38.9318 134.741 42.9718 132.64 41.62 130.084Z" fill="#9F616A"/>
<path d="M20.4011 147.067H30.2455C30.2455 147.349 40.3913 147.578 40.3913 147.578C42.3397 149 41.4236 152.658 38.8555 152.586L20.4011 152.586C17.0071 152.634 17.0002 147.019 20.4011 147.067Z" fill="#F0F0F0"/>
<path d="M31.1095 152.484H28.4438V169.655H31.1095V152.484Z" fill="#F0F0F0"/>
<path d="M38.6964 169.561C38.6964 169.848 34.6571 169.672 29.6743 169.672C24.6915 169.672 20.6521 169.848 20.6521 169.561C24.0782 166.3 35.3191 166.329 38.6964 169.561Z" fill="#F0F0F0"/>
<path d="M36.0848 167.344L38.5986 167.344L39.7945 160.845H36.0845L36.0848 167.344Z" fill="#9F616A"/>
<path d="M35.4438 169.774L43.5495 169.773C43.6691 165.532 38.1092 166.645 35.4436 166.526L35.4438 169.774Z" fill="#2F2E41"/>
<path d="M39.8449 163.314L44.8565 152.111C45.2749 151.166 45.3212 150.1 44.986 149.123C44.6509 148.146 43.9591 147.331 43.0482 146.84L32.1779 141.029C29.8056 140.838 25.0049 140.412 22.6419 140.194C18.346 147.933 36.2777 149.683 38.8168 151.01C38.9126 151.036 39.0022 151.081 39.0798 151.143C39.1574 151.204 39.2213 151.281 39.2677 151.369C39.3141 151.456 39.3418 151.552 39.3492 151.651C39.3566 151.749 39.3434 151.849 39.3106 151.942L34.6546 162.37C34.6067 162.502 34.5897 162.644 34.605 162.783C34.6202 162.923 34.6673 163.058 34.7427 163.177C34.818 163.295 34.9197 163.396 35.0398 163.469C35.1599 163.543 35.2953 163.589 35.4357 163.602C36.1717 163.432 39.5255 164.446 39.8449 163.314Z" fill="#2F2E41"/>
<path d="M34.4445 167.344L36.9582 167.344L38.1545 160.845H34.4441L34.4445 167.344Z" fill="#9F616A"/>
<path d="M33.8034 169.774L41.9091 169.773C42.0288 165.532 36.4688 166.645 33.8032 166.526L33.8034 169.774Z" fill="#2F2E41"/>
<path d="M37.9995 163.927L43.0111 152.724C43.4295 151.78 43.4758 150.713 43.1406 149.736C42.8055 148.759 42.1137 147.944 41.2028 147.453L30.3325 141.642C28.2624 141.477 23.8319 141.084 21.7882 140.912L21.7887 140.863C20.7121 142.18 21.114 146.947 24.3025 147.756C29.1649 149.534 34.7822 151.053 36.9715 151.623C37.0674 151.649 37.1569 151.694 37.2345 151.756C37.312 151.817 37.376 151.894 37.4223 151.982C37.4687 152.069 37.4964 152.165 37.5038 152.264C37.5111 152.363 37.498 152.462 37.4652 152.555L32.8092 162.983C32.7613 163.115 32.7443 163.257 32.7596 163.397C32.7748 163.536 32.8219 163.671 32.8973 163.79C32.9727 163.909 33.0743 164.009 33.1944 164.083C33.3145 164.156 33.4499 164.202 33.5903 164.215C34.3314 164.051 37.6764 165.055 37.9995 163.927Z" fill="#2F2E41"/>
<path d="M28.5548 141.116C28.7951 140.947 32.2457 142.752 32.8609 141.321C29.9902 134.166 31.9684 131.077 30.2099 126.974C29.0525 123.707 25.0293 123.932 22.2505 123.846C21.2146 124.346 20.3685 125.166 19.8388 126.185C19.309 127.203 19.124 128.365 19.3114 129.497C19.3276 133.962 22.0075 137.367 21.0704 140.606C21.0313 140.739 21.0195 140.878 21.0357 141.015C21.0519 141.153 21.0958 141.286 21.1647 141.406C21.2336 141.526 21.3262 141.631 21.4368 141.714C21.5475 141.798 21.6739 141.858 21.8085 141.892C22.3152 141.77 28.4088 141.138 28.6561 140.932L28.5548 141.116Z" fill="#1FA7B0"/>
<path d="M23.7732 112.106C17.1869 112.136 17.1875 122.119 23.7735 122.147C30.3595 122.118 30.3589 112.135 23.7732 112.106Z" fill="#9F616A"/>
<path d="M22.169 121.735C22.4366 121.852 22.9845 119.726 22.7391 119.301C22.374 118.669 22.3956 118.674 22.1533 118.255C21.4288 117.379 22.6815 115.926 23.3538 117.039C23.3942 113.694 29.916 116.585 29.2791 112.862C21.8268 105.598 11.4227 117.035 22.169 121.735Z" fill="#2F2E41"/>
<path d="M96.5592 145.587H88.8636C88.8636 145.916 80.4513 146.182 80.4513 146.182C78.1801 147.84 79.2488 152.103 82.241 152.018L96.5592 152.018C100.516 152.074 100.521 145.532 96.5592 145.587Z" fill="#F0F0F0"/>
<path d="M90.9632 151.9H87.8569V169.774H90.9632V151.9Z" fill="#F0F0F0"/>
<path d="M78.7929 169.442C78.1811 169.725 100.429 169.724 99.8198 169.443C95.8274 165.642 82.7285 165.676 78.7929 169.442Z" fill="#F0F0F0"/>
<path d="M33.2855 134.14L42.0358 127.258C44.7654 128.24 46.2767 123.952 43.5266 123.015C43.2036 122.901 42.8588 122.862 42.5182 122.9C42.1776 122.938 41.8502 123.053 41.5608 123.236C41.2713 123.419 41.0273 123.665 40.8473 123.956C40.6673 124.247 40.556 124.574 40.5218 124.914L31.811 129.924L29.6433 128.68L27.2419 131.814C28.722 132.618 31.4522 135.81 33.2855 134.14Z" fill="#9F616A"/>
<path d="M26.1743 132.79L31.167 129.405C29.986 128.053 28.3951 124.028 25.9646 125.348C23.1884 126.466 25.9043 130.952 26.1743 132.79Z" fill="#1FA7B0"/>
<path d="M64.1377 105.576H60.5291C60.1942 105.576 59.8729 105.444 59.636 105.207C59.3992 104.971 59.2661 104.651 59.2661 104.317C59.2661 103.983 59.3992 103.663 59.636 103.427C59.8729 103.191 60.1942 103.058 60.5291 103.058H64.1377C64.4727 103.058 64.7939 103.191 65.0308 103.427C65.2677 103.663 65.4007 103.983 65.4007 104.317C65.4007 104.651 65.2677 104.971 65.0308 105.207C64.7939 105.444 64.4727 105.576 64.1377 105.576Z" fill="#E4E4E4"/>
<path d="M65.4008 104.857H59.2662C59.0747 104.857 58.8912 104.781 58.7558 104.646C58.6205 104.511 58.5444 104.328 58.5444 104.137C58.5444 103.946 58.6205 103.763 58.7558 103.629C58.8912 103.494 59.0747 103.418 59.2662 103.418H65.4008C65.5922 103.418 65.7758 103.494 65.9111 103.629C66.0465 103.763 66.1225 103.946 66.1225 104.137C66.1225 104.328 66.0465 104.511 65.9111 104.646C65.7758 104.781 65.5922 104.857 65.4008 104.857Z" fill="#CACACA"/>
<path d="M64.6725 107.924H59.8922C59.3691 107.924 58.8674 107.716 58.4974 107.348C58.1275 106.979 57.9197 106.479 57.9197 105.957C57.9197 105.436 58.1275 104.936 58.4974 104.567C58.8674 104.198 59.3691 103.991 59.8922 103.991H64.6725C65.1957 103.991 65.6974 104.198 66.0673 104.567C66.4372 104.936 66.6451 105.436 66.6451 105.957C66.6451 106.479 66.4372 106.979 66.0673 107.348C65.6974 107.716 65.1957 107.924 64.6725 107.924Z" fill="#E4E4E4"/>
<path d="M89.979 132.156C89.7044 132.019 89.4631 131.825 89.2721 131.586C89.0811 131.346 88.9451 131.068 88.8735 130.771C88.802 130.474 88.7967 130.164 88.8581 129.865C88.9195 129.565 89.046 129.283 89.2288 129.037L87.6599 113.746H91.0504L92.2972 128.677C92.6906 129.01 92.9478 129.476 93.0198 129.986C93.0919 130.496 92.9738 131.014 92.6881 131.443C92.4024 131.872 91.9688 132.181 91.4695 132.312C90.9702 132.444 90.4398 132.388 89.979 132.156Z" fill="#FFB6B6"/>
<path d="M86.8661 105.307C89.5153 105.307 91.6629 103.166 91.6629 100.525C91.6629 97.8842 89.5153 95.7433 86.8661 95.7433C84.2169 95.7433 82.0693 97.8842 82.0693 100.525C82.0693 103.166 84.2169 105.307 86.8661 105.307Z" fill="#FFB6B6"/>
<path d="M85.7745 122.631L78.6154 121.072C78.4272 121.031 78.2578 120.929 78.1332 120.783C78.0085 120.636 77.9355 120.453 77.9252 120.261C77.8425 118.669 77.7831 114.549 79.0137 110.703C79.2513 109.966 79.6349 109.283 80.1418 108.696C80.6486 108.109 81.2684 107.63 81.9645 107.286C82.6606 106.942 83.4188 106.74 84.1943 106.694C84.9698 106.647 85.7468 106.756 86.4794 107.013C87.2525 107.284 87.9594 107.715 88.5537 108.277C89.1481 108.839 89.6165 109.521 89.9282 110.276C90.2398 111.031 90.3878 111.844 90.3623 112.661C90.3368 113.477 90.1384 114.279 89.7802 115.013C88.1926 118.263 87.1927 120.617 86.8084 122.009C86.7487 122.225 86.6082 122.409 86.4159 122.525C86.2235 122.641 85.9939 122.679 85.7745 122.631Z" fill="#1FA7B0"/>
<path d="M79.0304 168.059H76.6357L75.4968 158.852L79.0307 158.852L79.0304 168.059Z" fill="#FFB6B6"/>
<path d="M74.9257 167.377H79.5434V170.275H72.0183C72.0183 169.895 72.0935 169.518 72.2396 169.166C72.3857 168.814 72.5999 168.495 72.8699 168.226C73.1398 167.957 73.4603 167.743 73.8131 167.597C74.1658 167.452 74.5439 167.377 74.9257 167.377Z" fill="#2F2E41"/>
<path d="M102.972 164.965L100.874 166.115L95.4265 158.595L98.5234 156.898L102.972 164.965Z" fill="#FFB6B6"/>
<path d="M99.0461 166.339L103.093 164.121L104.493 166.661L97.899 170.275C97.7151 169.942 97.5988 169.575 97.5569 169.197C97.515 168.819 97.5483 168.436 97.6548 168.07C97.7613 167.705 97.939 167.364 98.1777 167.067C98.4164 166.77 98.7115 166.523 99.0461 166.339Z" fill="#2F2E41"/>
<path d="M79.074 162.946L75.3879 162.663C75.1817 162.648 74.9875 162.56 74.8397 162.416C74.692 162.272 74.6002 162.08 74.5806 161.875C74.0553 156.413 71.7505 128.733 77.984 120.211L78.0015 120.187L78.0293 120.177C78.0851 120.156 83.6443 118.18 86.8339 121.802C86.934 121.917 87.0022 122.056 87.0319 122.205C87.0616 122.355 87.0516 122.509 87.003 122.654L86.8813 123.018C86.8466 123.121 86.8372 123.231 86.8541 123.338C86.8709 123.446 86.9135 123.548 86.9781 123.635C87.8633 124.828 90.8425 129.423 92.0134 138.457C92.0208 138.515 92.0356 138.571 92.0575 138.625L100.702 159.795C100.746 159.903 100.769 160.019 100.767 160.136C100.766 160.252 100.741 160.368 100.694 160.475C100.648 160.582 100.58 160.678 100.495 160.759C100.411 160.84 100.311 160.902 100.201 160.944L97.4811 161.977C97.283 162.051 97.0647 162.052 96.8661 161.979C96.6674 161.907 96.5015 161.765 96.3986 161.581L83.9191 139.01C83.8694 138.92 83.7925 138.848 83.6993 138.805C83.6062 138.761 83.5016 138.748 83.4005 138.767C83.2994 138.786 83.2069 138.837 83.1363 138.911C83.0657 138.986 83.0205 139.081 83.0073 139.183L80.0129 162.185C79.9855 162.396 79.882 162.59 79.7218 162.73C79.5616 162.871 79.3556 162.949 79.1422 162.949C79.1196 162.949 79.0969 162.948 79.074 162.946Z" fill="#2F2E41"/>
<path d="M68.2179 106.08C68.2419 106.185 68.2575 106.292 68.2646 106.399L76.6543 111.224L78.6935 110.054L80.8674 112.891L77.4594 115.312C77.1841 115.508 76.8525 115.609 76.5145 115.601C76.1765 115.593 75.8503 115.476 75.5848 115.267L66.9337 108.463C66.5432 108.607 66.1181 108.629 65.7147 108.527C65.3113 108.424 64.9489 108.201 64.6756 107.888C64.4022 107.575 64.231 107.187 64.1846 106.774C64.1383 106.362 64.2189 105.945 64.416 105.579C64.613 105.214 64.917 104.917 65.2875 104.727C65.6581 104.538 66.0776 104.466 66.4903 104.52C66.9031 104.575 67.2894 104.753 67.598 105.032C67.9066 105.31 68.1228 105.676 68.2179 106.08Z" fill="#FFB6B6"/>
<path d="M76.7696 110.742C76.7949 110.618 76.8465 110.502 76.921 110.4C76.9956 110.299 77.0912 110.214 77.2015 110.153L81.0514 108.007C81.5629 107.613 82.2103 107.437 82.8517 107.518C83.493 107.599 84.0758 107.931 84.4722 108.44C84.8686 108.949 85.0462 109.594 84.9661 110.233C84.886 110.873 84.5546 111.455 84.0448 111.851L80.9752 115.028C80.8875 115.119 80.7814 115.19 80.6638 115.236C80.5463 115.282 80.4202 115.302 80.2941 115.295C80.168 115.289 80.0448 115.255 79.9331 115.196C79.8213 115.137 79.7235 115.055 79.6463 114.956L76.9348 111.453C76.8576 111.353 76.8029 111.238 76.7744 111.115C76.7459 110.992 76.7442 110.865 76.7696 110.742Z" fill="#1FA7B0"/>
<path d="M86.7352 117.358C86.637 117.279 86.557 117.179 86.5009 117.067C86.4447 116.954 86.4135 116.83 86.4096 116.705L86.2715 112.31C86.1563 111.676 86.2981 111.022 86.6657 110.492C87.0334 109.962 87.5968 109.599 88.2324 109.483C88.8681 109.367 89.5241 109.506 90.0566 109.871C90.589 110.237 90.9545 110.797 91.0727 111.431L92.4888 115.61C92.5292 115.73 92.5433 115.856 92.5302 115.981C92.5172 116.107 92.4772 116.228 92.413 116.336C92.3488 116.444 92.2619 116.538 92.1582 116.61C92.0546 116.682 91.9366 116.73 91.8123 116.753L87.4442 117.539C87.3199 117.561 87.1922 117.557 87.0699 117.526C86.9475 117.494 86.8333 117.437 86.7352 117.358Z" fill="#1FA7B0"/>
<path d="M86.1068 99.4253C84.8739 100.266 83.2551 101.131 81.9959 100.235C81.6021 99.9363 81.3159 99.5182 81.1804 99.0435C81.0448 98.5688 81.0671 98.0632 81.2439 97.6022C81.8469 95.8833 83.5034 95.1266 85.0875 94.5465C87.1469 93.7925 89.3892 93.1926 91.5151 93.7326C93.6411 94.2726 95.5199 96.3245 95.1361 98.4778C94.8275 100.209 93.189 101.65 93.4216 103.394C93.6557 105.148 95.6351 106.072 97.3826 106.386C99.1301 106.699 101.086 106.8 102.341 108.051C103.944 109.647 103.543 112.501 102.036 114.186C100.528 115.871 98.2536 116.635 96.0492 117.154C93.1286 117.843 89.9697 118.204 87.1958 117.062C84.4219 115.92 82.2633 112.846 83.0669 109.964C83.4063 108.746 84.2059 107.717 84.9786 106.715C85.7513 105.714 86.5338 104.666 86.8286 103.437C86.9646 102.926 86.9795 102.391 86.8724 101.874C86.7652 101.356 86.5388 100.871 86.2111 100.455C86.0871 100.321 86.0092 100.151 85.9883 99.9692C85.9674 99.7878 86.0048 99.6044 86.095 99.4455L86.1068 99.4253Z" fill="#2F2E41"/>
<path d="M137.848 170.508H0.36086C0.265154 170.508 0.173367 170.47 0.105693 170.403C0.0380188 170.336 0 170.244 0 170.149C0 170.053 0.0380188 169.962 0.105693 169.894C0.173367 169.827 0.265154 169.789 0.36086 169.789H137.848C137.944 169.789 138.036 169.827 138.104 169.894C138.171 169.962 138.209 170.053 138.209 170.149C138.209 170.244 138.171 170.336 138.104 170.403C138.036 170.47 137.944 170.508 137.848 170.508Z" fill="#CACACA"/>
<path d="M287.966 209H150.479C150.383 209 150.291 208.962 150.223 208.895C150.156 208.827 150.118 208.736 150.118 208.64C150.118 208.545 150.156 208.453 150.223 208.386C150.291 208.318 150.383 208.281 150.479 208.281H287.966C288.062 208.281 288.154 208.318 288.221 208.386C288.289 208.453 288.327 208.545 288.327 208.64C288.327 208.736 288.289 208.827 288.221 208.895C288.154 208.962 288.062 209 287.966 209Z" fill="#CACACA"/>
<path d="M232.386 68.8832H80.6496C80.2685 68.8832 79.8931 68.7906 79.556 68.6135C79.2188 68.4364 78.93 68.18 78.7146 67.8666C78.4992 67.5532 78.3636 67.1922 78.3196 66.8148C78.2756 66.4374 78.3246 66.0551 78.4621 65.7008L86.0267 46.2199H227.009L234.574 65.7008C234.711 66.0551 234.76 66.4374 234.716 66.8148C234.672 67.1922 234.537 67.5532 234.321 67.8667C234.106 68.1801 233.817 68.4364 233.48 68.6136C233.143 68.7907 232.768 68.8832 232.386 68.8832Z" fill="#CACACA"/>
</g>
<defs>
<clipPath id="clip0_15_6">
<rect width="319" height="163" fill="white" transform="translate(0 46)"/>
</clipPath>
</defs>
</svg>
