<svg width="319" height="256" viewBox="0 0 319 256" fill="none" xmlns="http://www.w3.org/2000/svg">
<g clip-path="url(#clip0_15_124)">
<g clip-path="url(#clip1_15_124)">
<path d="M289.831 255.157L289.812 254.979C289.507 251.988 289.857 248.966 290.838 246.124C291.819 243.282 293.408 240.687 295.493 238.521C296.672 237.315 297.998 236.262 299.44 235.388L299.578 235.304L299.623 235.458C300.162 237.302 300.88 239.163 301.209 239.987L301.935 234.081L302.091 234.013C302.81 233.698 303.606 233.604 304.377 233.745C305.149 233.886 305.861 234.255 306.421 234.804C307.002 235.351 307.406 236.059 307.581 236.837C307.756 237.616 307.694 238.429 307.403 239.171C307.144 239.852 306.894 240.559 306.652 241.243C305.822 243.593 304.963 246.023 303.512 248.012C302.398 249.507 300.964 250.735 299.316 251.605C297.667 252.475 295.845 252.966 293.982 253.041L289.831 255.157Z" fill="#F2F2F2"/>
<path d="M140.617 253.041C138.754 252.965 136.932 252.475 135.284 251.605C133.635 250.735 132.201 249.507 131.087 248.012C129.636 246.023 128.777 243.593 127.947 241.243C127.705 240.559 127.455 239.852 127.196 239.171C126.905 238.429 126.843 237.616 127.018 236.837C127.193 236.059 127.597 235.351 128.178 234.804C128.738 234.255 129.45 233.886 130.222 233.745C130.993 233.604 131.789 233.698 132.508 234.013L132.664 234.081L133.39 239.987C133.719 239.163 134.437 237.302 134.976 235.458L135.021 235.304L135.159 235.388C136.601 236.262 137.927 237.315 139.106 238.521C141.191 240.687 142.78 243.282 143.761 246.124C144.742 248.966 145.092 251.988 144.787 254.979L144.768 255.157L140.617 253.041Z" fill="#F2F2F2"/>
<path d="M93.3468 132.035C93.3468 132.035 91.4182 116.446 87.0734 111.695L76.8472 115.656L84.922 136.26L101.261 156.871C101.343 157.635 101.626 158.364 102.082 158.984C102.537 159.603 103.148 160.092 103.853 160.399C104.557 160.706 105.331 160.821 106.095 160.733C106.858 160.644 107.585 160.356 108.201 159.895C108.817 159.435 109.301 158.82 109.602 158.113C109.904 157.406 110.013 156.631 109.918 155.868C109.823 155.105 109.529 154.381 109.064 153.769C108.598 153.156 107.98 152.678 107.27 152.382L93.3468 132.035Z" fill="#A0616A"/>
<path d="M41.2242 140.723C41.2242 140.723 48.219 126.658 47.2171 120.299L36.5032 117.958L31.8669 139.597L34.1191 165.802C33.7659 166.485 33.5996 167.249 33.6372 168.017C33.6748 168.785 33.915 169.529 34.3332 170.175C34.7515 170.82 35.333 171.343 36.0188 171.69C36.7045 172.038 37.47 172.198 38.2377 172.154C39.0053 172.111 39.7477 171.865 40.3894 171.441C41.0312 171.018 41.5494 170.432 41.8916 169.743C42.2338 169.055 42.3878 168.288 42.3378 167.521C42.2879 166.754 42.0358 166.013 41.6072 165.375L41.2242 140.723Z" fill="#A0616A"/>
<path d="M53.5974 248.504H58.6659L61.0769 228.954L53.5964 228.955L53.5974 248.504Z" fill="#9E616A"/>
<path d="M53.4192 253.792L69.0052 253.791V253.594C69.0051 251.985 68.3659 250.442 67.2283 249.305C66.0906 248.167 64.5476 247.528 62.9387 247.528L60.0913 245.368L54.7795 247.528L53.4189 247.528L53.4192 253.792Z" fill="#2F2E41"/>
<path d="M67.4836 245.637L72.4274 246.754L79.089 228.216L71.792 226.567L67.4836 245.637Z" fill="#9E616A"/>
<path d="M66.144 250.755L81.3469 254.19L81.3903 253.997C81.7449 252.428 81.4615 250.782 80.6026 249.422C79.7437 248.061 78.3795 247.098 76.8102 246.743L74.509 244.008L68.8516 244.945L67.5245 244.645L66.144 250.755Z" fill="#2F2E41"/>
<path d="M90.3148 195.228C87.3048 204.817 79.606 230.269 79.606 230.269C79.606 230.269 73.0534 231.905 70.9862 230.269C68.919 228.634 71.4932 223.171 71.4932 223.171C70.1305 217.05 73.197 210.865 73.396 204.931C72.9826 202.441 75.1743 200.304 75.3749 197.929C73.9261 196.826 66.8776 179.524 65.4403 174.69C66.179 189.421 64.3946 211.509 62.3664 225.706C61.4063 232.426 60.0678 230.462 53.2395 230.776C50.1949 229.872 50.7042 223.171 50.7042 223.171V217.593C49.2242 211.347 49.2047 209.998 49.6902 206.945C49.4677 203.704 46.6781 170.197 44.2028 158.857C42.5532 149.823 62.7701 147.834 68.5843 145.68C78.2862 141.006 76.6488 147.651 81.758 153.773C86.6846 164.325 89.5864 183.169 90.3148 195.228Z" fill="#2F2E41"/>
<path d="M70.8509 97.266L65.9457 90.2546H57.3259L49.7202 97.3533L49.0808 160.423L83.4993 164.282L70.8509 97.266Z" fill="#1FA7B0"/>
<path d="M67.4404 91.9025L81.0976 98.1525L83.6923 138.424C83.6923 138.424 85.8822 143.597 86.0566 144.106C86.2396 144.641 86.6041 147.278 86.4463 147.717C85.962 149.132 85.7167 150.619 85.7205 152.114C85.8388 153.262 87.0649 155.311 87.3854 156.42C87.6064 157.184 86.2275 159.72 86.2275 159.72C86.7934 160.572 87.1652 161.537 87.3169 162.548C87.4685 163.56 87.3962 164.592 87.105 165.572L86.7346 166.819L79.6359 165.805L76.5753 150.757L76.2523 149.169L75.918 147.525L75.6568 146.241L75.4246 145.099L75.2297 144.141L67.4404 91.9025Z" fill="#3F3D56"/>
<path d="M72.4778 100.181L81.0976 98.1525C85.2564 102.989 88.6357 112.528 91.3004 121.218C91.49 121.836 91.3413 122.691 91.8585 123.058C92.7983 123.727 93.359 124.533 92.6793 125.827C92.4196 126.321 92.9909 126.89 93.1423 127.409C93.2697 127.845 93.0966 128.572 93.5183 128.698C94.7244 129.057 94.7823 130.088 94.3104 131.395L84.1694 136.465L83.8804 135.999L82.7415 134.159L77.8402 126.244L72.4778 100.181Z" fill="#3F3D56"/>
<path d="M55.2976 92.2828L47.6324 99.1666C47.6324 99.1666 45.8388 128.31 44.6496 139.438C44.599 139.912 45.2589 141.042 45.2084 141.515L44.9114 144.293L44.688 146.384C44.6076 147.136 43.6355 154.65 43.6355 154.65L42.1146 155.664C41.4679 158.566 41.8295 161.601 43.1398 164.27L44.1425 166.312L55.2381 165.083L55.2976 92.2828Z" fill="#3F3D56"/>
<path d="M50.727 103.485L47.6324 99.1666L37.9984 105.251C35.8726 111.132 33.541 121.394 32.2533 130.317C32.2241 130.519 32.3605 130.86 32.1675 130.921C31.4737 131.141 31.2641 131.489 32.0088 132.092C32.0954 132.2 32.1594 132.324 32.1971 132.458C32.2348 132.591 32.2454 132.73 32.2283 132.868C32.2111 133.005 32.1665 133.138 32.0972 133.258C32.0278 133.378 31.9352 133.482 31.8246 133.566C31.008 133.954 30.3802 134.337 31.6945 134.713C32.6187 134.977 31.5045 136.594 31.4363 137.479L42.5914 140.015C43.6107 139.721 43.804 139.124 43.2611 138.257C44.1012 138.003 44.4193 137.552 43.8315 136.759L44.1073 136.035C45.0444 135.891 45.0313 135.502 44.5083 134.983L44.8885 133.985L46.6478 129.367L50.727 103.485Z" fill="#3F3D56"/>
<path d="M60.4186 88.2777C66.6796 88.2777 71.7551 83.2022 71.7551 76.9412C71.7551 70.6802 66.6796 65.6046 60.4186 65.6046C54.1576 65.6046 49.082 70.6802 49.082 76.9412C49.082 83.2022 54.1576 88.2777 60.4186 88.2777Z" fill="#A0616A"/>
<path d="M48.9388 84.2459C48.9388 84.2459 51.4356 84.9305 52.8886 85.3116C52.8135 84.2304 52.3452 83.2182 52.1074 82.1605C51.8696 81.1028 51.9213 79.8589 52.7073 79.112C53.4934 78.3652 55.1305 78.6562 55.2572 79.7308C55.9222 78.3088 56.5886 76.8842 57.2564 75.457C59.1604 79.3761 63.053 76.0363 67.2973 77.0266C69.4625 77.5366 72.1762 77.3175 73.3201 75.4096C72.6773 74.8701 72.1357 74.2203 71.7207 73.4908C72.3804 73.6844 73.0668 73.7714 73.754 73.7485C73.7383 73.066 73.5589 72.3973 73.2309 71.7987C72.903 71.2 72.436 70.6888 71.8693 70.3082C71.2589 69.9091 72.7698 68.489 72.2371 67.9891C71.1444 66.9688 70.4111 67.6617 69.7656 66.3168C69.3493 65.4852 68.708 64.7871 67.9146 64.302C67.1212 63.8169 66.2075 63.5643 65.2776 63.5729C63.4223 63.6164 60.098 63.5985 59.3782 65.3077C57.0842 63.8059 53.8908 64.2302 51.6485 65.8056C49.7847 67.1099 47.6636 71.0524 47.1954 73.2781C46.7273 75.5037 47.759 82.3062 48.9388 84.2459Z" fill="#2F2E41"/>
<path d="M100.591 134.314C100.398 134.314 100.206 134.355 100.028 134.432C99.8508 134.51 99.6913 134.624 99.5599 134.767C99.4286 134.909 99.3282 135.077 99.2652 135.261C99.2021 135.444 99.1778 135.639 99.1937 135.832C101.335 141.366 101.045 147.773 100.771 155.022C100.802 155.372 100.962 155.698 101.22 155.937C101.479 156.175 101.817 156.308 102.169 156.31H111.217C111.569 156.308 111.907 156.175 112.166 155.937C112.424 155.698 112.585 155.372 112.615 155.022C111.88 147.98 112.277 141.517 114.192 135.832C114.208 135.639 114.184 135.444 114.121 135.261C114.058 135.077 113.958 134.909 113.826 134.767C113.695 134.624 113.535 134.51 113.358 134.432C113.18 134.355 112.988 134.314 112.795 134.314H100.591Z" fill="#1FA7B0"/>
<path d="M114.917 136.872L114.242 133.665C114.181 133.374 114.021 133.112 113.789 132.924C113.558 132.737 113.269 132.634 112.971 132.634H108.757C108.74 132.578 108.713 132.526 108.678 132.48L108.209 131.895C108.165 131.839 108.109 131.795 108.046 131.764C107.982 131.734 107.912 131.718 107.841 131.718H105.239C105.169 131.718 105.099 131.734 105.035 131.764C104.972 131.795 104.916 131.839 104.872 131.895L104.403 132.48C104.367 132.526 104.341 132.578 104.324 132.634H100.415C100.117 132.634 99.8283 132.737 99.5969 132.924C99.3655 133.112 99.2057 133.374 99.1443 133.665L98.4693 136.872C98.4295 137.061 98.4323 137.257 98.4777 137.445C98.5231 137.633 98.6099 137.808 98.7316 137.958C98.8534 138.108 99.0071 138.229 99.1816 138.312C99.3561 138.395 99.5469 138.439 99.7402 138.439C104.052 140.65 108.679 140.704 113.646 138.439C113.839 138.439 114.03 138.395 114.205 138.312C114.379 138.229 114.533 138.108 114.655 137.958C114.777 137.808 114.863 137.633 114.909 137.445C114.954 137.257 114.957 137.061 114.917 136.872Z" fill="#3F3D56"/>
<path d="M229.692 138.494C229.471 137.649 228.686 135.069 227.687 136.209C227.539 136.378 227.422 135.834 227.284 135.634C227.046 135.288 226.902 133.812 226.65 133.423C226.137 132.632 225.501 132.866 224.98 131.947C223.489 129.321 222.098 126.323 221.58 123.789C219.993 116.032 222.178 105.425 222.178 105.425L221.471 90.3155L216.308 90.1419V89.8023C216.308 89.1203 216.037 88.4663 215.555 87.9841C215.073 87.5019 214.419 87.231 213.737 87.231H203.903C203.25 87.2313 202.621 87.4804 202.145 87.9277C201.669 88.3749 201.381 88.9868 201.34 89.6388L197.291 89.5027L190.279 111.781C190.279 111.781 193.551 120.191 194.706 128.353C195.019 130.554 195.095 132.782 194.932 135C194.775 137.248 194.335 139.467 193.622 141.605C193.622 141.605 223.368 147.834 229.185 142.043C229.185 142.043 230.09 140.011 229.692 138.494Z" fill="#3F3D56"/>
<path d="M267.781 140.118H260.754V26.9952C260.267 26.6352 259.775 26.2803 259.278 25.9304C259.177 25.8645 259.08 25.7935 258.984 25.7276C255.99 23.6333 252.866 21.733 249.629 20.0385C248.181 18.0983 246.595 16.2648 244.883 14.5523C239.837 9.50689 233.763 5.60744 227.075 3.11914C220.387 0.630851 213.242 -0.387906 206.125 0.132158C199.008 0.652222 192.087 2.69891 185.832 6.13302C179.577 9.56713 174.134 14.3081 169.875 20.0335C167.685 21.1794 165.552 22.4166 163.476 23.7451C163.279 23.8718 163.081 23.9986 162.888 24.1254C162.883 24.1304 162.878 24.1304 162.873 24.1355C162.514 24.3706 162.219 24.6918 162.015 25.07C161.811 25.4481 161.705 25.8711 161.707 26.3006V140.118H151.718C147.307 140.118 143.499 143.723 143.519 148.134C143.522 149.14 143.717 150.136 144.092 151.07C144.236 151.437 144.411 151.792 144.614 152.13C144.873 152.573 145.174 152.991 145.512 153.377C146.259 154.23 147.18 154.913 148.213 155.38C149.245 155.848 150.366 156.09 151.5 156.09H267.999C270.111 156.087 272.135 155.249 273.631 153.758C275.126 152.267 275.971 150.246 275.98 148.134C276 143.723 272.193 140.118 267.781 140.118ZM231.532 140.118H190.629L184.99 62.2097H237.171L231.532 140.118Z" fill="#E6E6E6"/>
<path d="M238.128 111.181L255.608 95.6065L260.765 98.1615L239.8 120.151L238.128 111.181Z" fill="#FFB6B6"/>
<path d="M218.583 91.8624L221.471 90.3154C221.471 90.3154 228.585 89.7087 231.488 98.0656L239.188 109.695L251.668 98.8791L257.076 102.623L241.348 121.395L234.808 122.231L220.664 103.927L218.583 91.8624Z" fill="#3F3D56"/>
<path d="M223.29 78.4948C221.712 89.1917 213.857 90.319 208.106 84.7349C202.09 78.8929 192.922 85.8469 192.922 78.4948C192.922 71.1427 196.242 58.1105 208.106 58.1105C220.378 58.1105 224.363 71.2214 223.29 78.4948Z" fill="#2F2E41"/>
<path d="M208.055 84.7226C213.698 84.7226 218.272 80.1481 218.272 74.5051C218.272 68.8621 213.698 64.2876 208.055 64.2876C202.412 64.2876 197.837 68.8621 197.837 74.5051C197.837 80.1481 202.412 84.7226 208.055 84.7226Z" fill="#FFB6B6"/>
<path d="M196.25 73.5028H200.291L202.074 68.5107L202.43 73.5028H204.362L205.402 70.5907L205.61 73.5028C208.557 76.1666 214.013 75.1919 219.962 73.5028C219.962 72.0824 219.682 70.6759 219.139 69.3636C218.595 68.0514 217.798 66.859 216.794 65.8546C215.79 64.8502 214.597 64.0535 213.285 63.51C211.973 62.9664 210.566 62.6866 209.146 62.6866H207.066C205.645 62.6866 204.239 62.9664 202.927 63.51C201.614 64.0535 200.422 64.8502 199.418 65.8546C198.413 66.859 197.617 68.0514 197.073 69.3636C196.53 70.6759 196.25 72.0824 196.25 73.5028Z" fill="#2F2E41"/>
<path d="M177.452 146.759C178.26 146.757 179.051 146.519 179.726 146.074C180.401 145.629 180.932 144.997 181.253 144.255C181.575 143.513 181.673 142.694 181.535 141.897C181.397 141.1 181.03 140.361 180.479 139.769L186.167 124.75L187.331 119.73C186.685 119.325 185.956 119.071 185.198 118.989C184.44 118.907 183.673 118.999 182.956 119.257C182.238 119.515 181.589 119.932 181.057 120.478C180.524 121.024 180.123 121.684 179.884 122.408L173.958 140.318C173.546 140.946 173.311 141.674 173.279 142.425C173.248 143.176 173.42 143.922 173.779 144.583C174.137 145.244 174.668 145.795 175.314 146.178C175.961 146.561 176.7 146.762 177.452 146.759Z" fill="#FFB6B6"/>
<path d="M246.317 80.6821C246.123 80.6821 245.931 80.7223 245.754 80.8001C245.576 80.8779 245.417 80.9917 245.286 81.1343C245.154 81.2769 245.054 81.4452 244.991 81.6285C244.928 81.8118 244.903 82.0062 244.919 82.1994C246.493 88.9876 247.16 95.4372 246.497 101.39C246.527 101.74 246.687 102.066 246.946 102.304C247.205 102.542 247.543 102.675 247.894 102.677H256.943C257.295 102.675 257.633 102.542 257.891 102.304C258.15 102.066 258.31 101.74 258.341 101.39C257.837 94.9498 258.37 88.4707 259.918 82.1994C259.934 82.0062 259.91 81.8118 259.847 81.6285C259.784 81.4452 259.683 81.2769 259.552 81.1343C259.42 80.9917 259.261 80.8779 259.083 80.8001C258.906 80.7223 258.714 80.6821 258.52 80.6821H246.317Z" fill="#1FA7B0"/>
<path d="M260.642 83.2398L259.967 80.0331C259.906 79.7415 259.746 79.4799 259.515 79.2921C259.283 79.1044 258.994 79.0019 258.696 79.0019H254.482C254.466 78.946 254.439 78.8936 254.403 78.8476L253.935 78.2622C253.891 78.2071 253.835 78.1625 253.771 78.1319C253.707 78.1013 253.637 78.0854 253.567 78.0854H250.965C250.894 78.0854 250.824 78.1013 250.761 78.1319C250.697 78.1625 250.641 78.2071 250.597 78.2622L250.129 78.8476C250.093 78.8936 250.066 78.946 250.049 79.0019H246.141C245.843 79.0019 245.554 79.1044 245.322 79.2921C245.091 79.4799 244.931 79.7415 244.87 80.0331L244.195 83.2398C244.155 83.429 244.158 83.6246 244.203 83.8124C244.248 84.0003 244.335 84.1757 244.457 84.3257C244.579 84.4758 244.732 84.5968 244.907 84.68C245.081 84.7631 245.272 84.8062 245.466 84.8062C250.127 86.7494 254.767 87.1329 259.372 84.8062C259.565 84.8062 259.756 84.7631 259.93 84.68C260.105 84.5968 260.258 84.4758 260.38 84.3257C260.502 84.1757 260.589 84.0003 260.634 83.8124C260.679 83.6246 260.682 83.429 260.642 83.2398Z" fill="#3F3D56"/>
<path d="M205.231 19.4867C205.101 19.4867 204.972 19.5136 204.853 19.5658C204.734 19.6179 204.628 19.6942 204.54 19.7897C204.452 19.8853 204.384 19.998 204.342 20.1209C204.3 20.2437 204.284 20.374 204.294 20.5034L205.351 33.3629C205.372 33.5976 205.479 33.8161 205.652 33.9758C205.826 34.1354 206.052 34.2245 206.288 34.2257H212.351C212.587 34.2245 212.813 34.1354 212.987 33.9758C213.16 33.8161 213.267 33.5976 213.288 33.3629L214.345 20.5034C214.356 20.374 214.339 20.2437 214.297 20.1209C214.255 19.998 214.188 19.8853 214.099 19.7897C214.011 19.6942 213.905 19.6179 213.786 19.5658C213.667 19.5136 213.538 19.4867 213.408 19.4867H205.231Z" fill="#FAFAFA"/>
<path d="M214.83 21.2007L214.378 19.0519C214.337 18.8565 214.23 18.6812 214.075 18.5553C213.92 18.4295 213.726 18.3609 213.526 18.3609H210.702C210.691 18.3234 210.673 18.2883 210.649 18.2574L210.336 17.8652C210.306 17.8282 210.268 17.7984 210.226 17.7779C210.183 17.7573 210.136 17.7467 210.089 17.7467H208.345C208.298 17.7467 208.251 17.7573 208.209 17.7779C208.166 17.7984 208.128 17.8282 208.099 17.8652L207.785 18.2574C207.761 18.2883 207.743 18.3234 207.732 18.3609H205.113C204.913 18.3609 204.719 18.4295 204.564 18.5553C204.409 18.6812 204.302 18.8565 204.261 19.0519L203.809 21.2007C203.782 21.3274 203.784 21.4585 203.814 21.5844C203.845 21.7103 203.903 21.8278 203.985 21.9284C204.066 22.0289 204.169 22.11 204.286 22.1657C204.403 22.2214 204.531 22.2503 204.66 22.2503H213.979C214.108 22.2503 214.236 22.2214 214.353 22.1657C214.47 22.11 214.573 22.0289 214.655 21.9284C214.736 21.8278 214.794 21.7103 214.825 21.5844C214.855 21.4585 214.857 21.3274 214.83 21.2007Z" fill="#CCCCCC"/>
<path d="M209.44 41.578C206.131 41.578 202.896 40.5966 200.144 38.758C197.393 36.9194 195.248 34.3062 193.981 31.2487C192.715 28.1912 192.384 24.8268 193.029 21.581C193.675 18.3352 195.269 15.3538 197.609 13.0137C199.949 10.6736 202.93 9.07994 206.176 8.43431C209.422 7.78868 212.786 8.12004 215.844 9.38649C218.901 10.6529 221.514 12.7976 223.353 15.5493C225.192 18.3009 226.173 21.536 226.173 24.8454C226.168 29.2816 224.403 33.5347 221.267 36.6716C218.13 39.8085 213.877 41.573 209.44 41.578ZM209.44 9.12689C206.332 9.12689 203.293 10.0488 200.708 11.7759C198.123 13.5031 196.108 15.958 194.918 18.8302C193.729 21.7024 193.417 24.8628 194.024 27.9119C194.63 30.961 196.127 33.7618 198.326 35.9601C200.524 38.1583 203.325 39.6554 206.374 40.2619C209.423 40.8684 212.583 40.5571 215.456 39.3674C218.328 38.1777 220.783 36.163 222.51 33.5781C224.237 30.9932 225.159 27.9542 225.159 24.8454C225.154 20.678 223.497 16.6827 220.55 13.736C217.603 10.7892 213.608 9.13164 209.44 9.12689Z" fill="#F2F2F2"/>
<path d="M260.652 254.538H160.764L160.875 242.933L160.885 241.924L161.778 151.1H260.145L260.272 177.338L260.277 178.348L260.652 254.538Z" fill="#E6E6E6"/>
<path d="M318.396 255.024L0.60369 255.18C0.443872 255.179 0.290755 255.116 0.17791 255.003C0.0650656 254.889 0.00170898 254.736 0.00170898 254.576C0.00170898 254.416 0.0650656 254.263 0.17791 254.15C0.290755 254.037 0.443872 253.973 0.60369 253.973L318.396 253.817C318.556 253.817 318.71 253.88 318.823 253.993C318.936 254.107 319 254.26 319 254.42C319 254.58 318.936 254.734 318.823 254.847C318.71 254.961 318.556 255.024 318.396 255.024Z" fill="#CACACA"/>
<path d="M155.86 119.61C155.666 119.61 155.474 119.65 155.297 119.728C155.119 119.806 154.96 119.92 154.828 120.062C154.697 120.205 154.597 120.373 154.534 120.556C154.47 120.74 154.446 120.934 154.462 121.127C155.894 127.878 156.524 134.316 156.039 140.318C156.07 140.668 156.23 140.994 156.489 141.232C156.747 141.47 157.086 141.603 157.437 141.605H166.486C166.837 141.603 167.175 141.47 167.434 141.232C167.693 140.994 167.853 140.668 167.884 140.318C167.153 134.263 167.925 127.799 169.461 121.127C169.477 120.934 169.452 120.74 169.389 120.556C169.326 120.373 169.226 120.205 169.095 120.062C168.963 119.92 168.804 119.806 168.626 119.728C168.449 119.65 168.257 119.61 168.063 119.61H155.86Z" fill="#1FA7B0"/>
<path d="M170.185 122.168L169.51 118.961C169.449 118.669 169.289 118.408 169.058 118.22C168.826 118.032 168.537 117.93 168.239 117.93H164.025C164.008 117.874 163.982 117.822 163.946 117.776L163.477 117.19C163.433 117.135 163.377 117.09 163.314 117.06C163.25 117.029 163.18 117.013 163.11 117.013H160.507C160.437 117.013 160.367 117.029 160.303 117.06C160.24 117.09 160.184 117.135 160.14 117.19L159.671 117.776C159.636 117.822 159.609 117.874 159.592 117.93H155.683C155.385 117.93 155.096 118.032 154.865 118.22C154.634 118.408 154.474 118.669 154.412 118.961L153.737 122.168C153.698 122.357 153.7 122.553 153.746 122.74C153.791 122.928 153.878 123.104 154 123.254C154.121 123.404 154.275 123.525 154.45 123.608C154.624 123.691 154.815 123.734 155.008 123.734C159.538 125.134 164.385 125.134 168.914 123.734C169.108 123.734 169.298 123.691 169.473 123.608C169.647 123.525 169.801 123.404 169.923 123.254C170.045 123.104 170.131 122.928 170.177 122.74C170.222 122.553 170.225 122.357 170.185 122.168Z" fill="#3F3D56"/>
<path d="M208.781 193.185H162.285V194.2H208.781V193.185Z" fill="#F2F2F2"/>
<path d="M259.993 155.664H213.497V156.678H259.993V155.664Z" fill="#F2F2F2"/>
<path d="M234.134 225.636H187.637V226.651H234.134V225.636Z" fill="#F2F2F2"/>
<path d="M260.277 178.481H238.342V177.467H260.272L260.277 178.481Z" fill="#F2F2F2"/>
<path d="M166.98 148.565H145.045V147.551H166.975L166.98 148.565Z" fill="#F2F2F2"/>
<path d="M184.22 48.6766H162.285V47.6625H184.215L184.22 48.6766Z" fill="#F2F2F2"/>
<path d="M257.742 27.8876H235.807V26.8735H257.737L257.742 27.8876Z" fill="#F2F2F2"/>
<path d="M235.432 48.6766H213.497V47.6625H235.427L235.432 48.6766Z" fill="#F2F2F2"/>
<path d="M174.809 242.369V243.383H160.875L160.885 242.369H174.809Z" fill="#F2F2F2"/>
<path d="M258.923 101.973C261.22 101.973 263.083 100.111 263.083 97.8131C263.083 95.5156 261.22 93.6531 258.923 93.6531C256.625 93.6531 254.763 95.5156 254.763 97.8131C254.763 100.111 256.625 101.973 258.923 101.973Z" fill="#FFB6B6"/>
<path d="M199.031 92.2784L197.291 89.5026C197.291 89.5026 191.629 88.1028 189.298 91.8546C186.967 95.6064 174.424 135.958 174.424 135.958L181.523 138.494L195.213 107.18L199.031 92.2784Z" fill="#3F3D56"/>
</g>
</g>
<defs>
<clipPath id="clip0_15_124">
<rect width="319" height="255.18" fill="white"/>
</clipPath>
<clipPath id="clip1_15_124">
<rect width="319" height="255.18" fill="white"/>
</clipPath>
</defs>
</svg>
