<svg width="319" height="256" viewBox="0 0 319 256" fill="none" xmlns="http://www.w3.org/2000/svg">
<g clip-path="url(#clip0_15_242)">
<g clip-path="url(#clip1_15_242)">
<path d="M205.499 252.688L148.421 149.779C148.405 149.527 148.327 149.283 148.195 149.069C148.062 148.854 147.878 148.676 147.66 148.549C147.409 148.406 147.123 148.337 146.835 148.35C146.826 148.349 146.817 148.35 146.807 148.349C146.798 148.35 146.789 148.349 146.78 148.35C146.389 148.332 146.007 148.465 145.712 148.722C145.418 148.98 145.234 149.341 145.2 149.73L84.706 252.688C84.6051 252.863 84.5396 253.055 84.5132 253.255C84.4868 253.455 84.5001 253.658 84.5522 253.853C84.6043 254.047 84.6942 254.23 84.8169 254.39C84.9396 254.55 85.0925 254.684 85.2671 254.785C85.4416 254.885 85.6343 254.951 85.8341 254.977C86.0339 255.003 86.237 254.99 86.4316 254.938C86.6263 254.886 86.8088 254.795 86.9686 254.673C87.1285 254.55 87.2626 254.397 87.3632 254.222L146.767 153.121L202.842 254.222C202.943 254.397 203.077 254.55 203.237 254.673C203.396 254.795 203.579 254.886 203.774 254.938C203.968 254.99 204.171 255.003 204.371 254.977C204.571 254.951 204.764 254.885 204.938 254.785C205.113 254.684 205.266 254.55 205.388 254.39C205.511 254.23 205.601 254.047 205.653 253.853C205.705 253.658 205.718 253.455 205.692 253.255C205.666 253.055 205.6 252.863 205.499 252.688Z" fill="#3F3D56"/>
<path d="M137.35 235.032L143.801 233.551L141.162 207.963L131.64 210.147L137.35 235.032Z" fill="#FFB6B6"/>
<path d="M142.337 222.67L133.156 224.776L130.22 219.039L130.054 218.836C128.752 217.237 128.029 215.245 128.003 213.184L120.372 192.998L119.748 192.701C119.266 192.471 118.837 192.141 118.492 191.733C118.147 191.325 117.893 190.848 117.747 190.333C117.601 189.819 117.567 189.28 117.646 188.751C117.725 188.222 117.916 187.717 118.206 187.268L117.398 185.131L94.6023 185.173L94.5796 185.166L66.5864 177.314L69.5257 159.793L77.4001 164.746C79.9949 164.577 124.443 161.848 128.549 171.81C132.206 180.68 137.475 195.835 141.252 206.986C141.44 207.486 141.674 207.969 141.951 208.426C142.539 209.331 142.883 210.372 142.952 211.449C142.997 211.917 143.086 212.38 143.219 212.832C144.789 217.524 142.397 222.546 142.373 222.597L142.337 222.67Z" fill="#2F2E41"/>
<path d="M135.17 232.892L137.268 232.411L144.693 227.202L149.846 229.525L149.847 229.525C152.327 228.956 154.932 229.396 157.088 230.747C159.245 232.099 160.776 234.252 161.345 236.732L161.415 237.036L137.386 242.549L135.17 232.892Z" fill="#2F2E41"/>
<path d="M39.9133 233.467C40.5693 226.327 44.7514 219.179 51.459 216.647C49.0195 224.052 49.278 232.082 52.1888 239.315C53.3214 242.1 54.8713 245.081 53.9823 247.953C53.4291 249.74 51.9805 251.141 50.3399 252.04C48.6991 252.939 46.861 253.402 45.0459 253.856L44.6957 254.165C41.5835 247.706 39.2574 240.606 39.9133 233.467Z" fill="#F0F0F0"/>
<path d="M51.5306 216.779C47.7232 221.331 45.447 226.967 45.0252 232.887C44.9118 234.16 44.9997 235.442 45.2857 236.688C45.6035 237.892 46.2379 238.989 47.1231 239.865C47.932 240.698 48.8559 241.457 49.4482 242.472C49.7436 242.997 49.9249 243.578 49.9801 244.177C50.0353 244.776 49.9633 245.38 49.7686 245.95C49.3205 247.381 48.3847 248.567 47.4293 249.694C46.3685 250.945 45.2469 252.228 44.8312 253.856C44.7808 254.053 44.4778 253.963 44.5281 253.766C45.2514 250.935 47.9233 249.254 49.1408 246.686C49.709 245.487 49.9193 244.11 49.3113 242.884C48.7795 241.812 47.8274 241.029 47.0011 240.192C46.125 239.35 45.4685 238.306 45.0888 237.152C44.7403 235.925 44.6031 234.648 44.6831 233.375C44.8176 230.507 45.4021 227.678 46.4155 224.991C47.555 221.918 49.2117 219.063 51.314 216.549C51.4442 216.393 51.6599 216.625 51.5306 216.779Z" fill="#FAFAFA"/>
<path d="M45.0488 230.973C44.0653 230.767 43.1868 230.219 42.5704 229.425C41.9539 228.632 41.6396 227.645 41.6835 226.641C41.6857 226.6 41.7036 226.562 41.7336 226.534C41.7636 226.506 41.8033 226.491 41.8442 226.492C41.8852 226.492 41.9243 226.509 41.9533 226.538C41.9822 226.567 41.9988 226.606 41.9995 226.647C41.9569 227.582 42.2498 228.501 42.8254 229.238C43.4009 229.976 44.2212 230.484 45.1382 230.67C45.3374 230.711 45.2469 231.013 45.0488 230.973Z" fill="#FAFAFA"/>
<path d="M46.6573 239.496C48.3861 238.387 49.6335 236.667 50.1505 234.679C50.2016 234.482 50.5046 234.572 50.4536 234.769C49.9117 236.836 48.61 238.624 46.8084 239.774C46.6366 239.883 46.4864 239.605 46.6573 239.496Z" fill="#FAFAFA"/>
<path d="M47.8575 222.208C48.2215 222.367 48.6192 222.433 49.015 222.4C49.4108 222.367 49.7922 222.237 50.125 222.02C50.2953 221.908 50.4453 222.187 50.2761 222.297C49.9073 222.535 49.4859 222.679 49.0487 222.716C48.6115 222.753 48.1719 222.683 47.7681 222.511C47.7287 222.498 47.6957 222.471 47.6759 222.434C47.656 222.398 47.6508 222.355 47.6613 222.315C47.6733 222.275 47.7007 222.241 47.7374 222.221C47.7742 222.201 47.8173 222.197 47.8575 222.208Z" fill="#FAFAFA"/>
<path d="M72.5393 228.684C72.435 228.757 72.3306 228.83 72.2262 228.905C70.8281 229.89 69.5123 230.987 68.2918 232.186C68.196 232.277 68.1002 232.371 68.0072 232.464C65.0976 235.382 62.7551 238.815 61.0987 242.588C60.4409 244.09 59.8984 245.64 59.4758 247.225C58.8923 249.413 58.4337 251.832 57.1978 253.646C57.071 253.836 56.9325 254.019 56.7831 254.193L45.0999 254.568C45.0729 254.555 45.0459 254.546 45.0188 254.533L44.553 254.57C44.5691 254.486 44.5875 254.4 44.6036 254.317C44.6128 254.269 44.6245 254.22 44.6336 254.172C44.6405 254.14 44.6476 254.108 44.652 254.078C44.6542 254.067 44.6566 254.057 44.659 254.048C44.6634 254.019 44.6706 253.992 44.6751 253.965C44.777 253.484 44.8825 253.003 44.9916 252.522C44.9915 252.52 44.9915 252.52 44.994 252.517C45.7899 248.843 47.0189 245.276 48.6552 241.891C48.7054 241.791 48.7553 241.688 48.8109 241.587C49.5707 240.088 50.4519 238.653 51.4455 237.298C51.992 236.557 52.5756 235.844 53.1941 235.163C54.7956 233.405 56.6637 231.909 58.7299 230.732C62.8491 228.385 67.6731 227.381 72.1948 228.589C72.3104 228.62 72.4236 228.651 72.5393 228.684Z" fill="#F0F0F0"/>
<path d="M72.5177 228.834C66.7371 230.176 61.5263 233.306 57.6256 237.778C56.7688 238.726 56.0667 239.803 55.5453 240.97C55.0741 242.122 54.9201 243.38 55.0995 244.613C55.2436 245.765 55.5245 246.927 55.386 248.094C55.3062 248.691 55.1012 249.264 54.7845 249.776C54.4678 250.287 54.0465 250.726 53.5482 251.064C52.3285 251.937 50.8678 252.32 49.4263 252.645C47.8258 253.005 46.1577 253.355 44.846 254.404C44.687 254.531 44.4991 254.277 44.6578 254.15C46.94 252.325 50.0854 252.591 52.6039 251.274C53.779 250.659 54.776 249.686 55.0288 248.341C55.2499 247.164 54.9612 245.966 54.8052 244.8C54.6126 243.601 54.7167 242.372 55.1084 241.222C55.5688 240.033 56.2282 238.93 57.0584 237.962C58.8926 235.753 61.0628 233.846 63.4895 232.311C66.2493 230.543 69.2912 229.261 72.4834 228.519C72.681 228.474 72.714 228.788 72.5177 228.834Z" fill="#FAFAFA"/>
<path d="M58.7969 236.264C58.1353 235.508 57.7642 234.541 57.7497 233.536C57.7352 232.531 58.0784 231.554 58.7178 230.779C58.8477 230.623 59.0969 230.817 58.9668 230.974C58.37 231.695 58.0504 232.605 58.0658 233.54C58.0812 234.476 58.4305 235.375 59.0507 236.076C59.1853 236.228 58.9307 236.416 58.7969 236.264Z" fill="#FAFAFA"/>
<path d="M54.9494 244.038C56.9975 244.193 59.029 243.571 60.6386 242.295C60.798 242.168 60.986 242.422 60.8268 242.549C59.1493 243.873 57.0339 244.517 54.9029 244.35C54.6998 244.334 54.7474 244.022 54.9494 244.038Z" fill="#FAFAFA"/>
<path d="M66.3164 230.957C66.5114 231.303 66.7892 231.595 67.125 231.807C67.4608 232.019 67.844 232.144 68.2402 232.172C68.4434 232.185 68.3956 232.498 68.1937 232.484C67.7562 232.452 67.3331 232.313 66.9616 232.08C66.5901 231.846 66.2814 231.525 66.0625 231.145C66.0389 231.111 66.0291 231.069 66.0352 231.028C66.0413 230.987 66.0628 230.95 66.0954 230.924C66.1291 230.899 66.1712 230.889 66.2126 230.895C66.254 230.901 66.2913 230.923 66.3164 230.957Z" fill="#FAFAFA"/>
<path d="M231.062 233.467C230.406 226.327 226.224 219.179 219.516 216.647C221.956 224.052 221.697 232.082 218.786 239.315C217.654 242.1 216.104 245.081 216.993 247.953C217.546 249.74 218.995 251.141 220.635 252.04C222.276 252.939 224.114 253.402 225.929 253.856L226.279 254.165C229.392 247.706 231.718 240.606 231.062 233.467Z" fill="#F0F0F0"/>
<path d="M219.445 216.779C223.252 221.331 225.528 226.967 225.95 232.887C226.063 234.16 225.976 235.442 225.69 236.688C225.372 237.892 224.737 238.989 223.852 239.865C223.043 240.698 222.119 241.457 221.527 242.472C221.232 242.997 221.05 243.578 220.995 244.177C220.94 244.776 221.012 245.38 221.207 245.95C221.655 247.381 222.591 248.567 223.546 249.694C224.607 250.945 225.728 252.228 226.144 253.856C226.194 254.053 226.497 253.963 226.447 253.766C225.724 250.935 223.052 249.254 221.834 246.686C221.266 245.487 221.056 244.11 221.664 242.884C222.196 241.812 223.148 241.029 223.974 240.192C224.85 239.35 225.507 238.306 225.886 237.152C226.235 235.925 226.372 234.648 226.292 233.375C226.158 230.507 225.573 227.678 224.56 224.991C223.42 221.918 221.764 219.063 219.661 216.549C219.531 216.393 219.315 216.625 219.445 216.779Z" fill="#FAFAFA"/>
<path d="M225.926 230.973C226.91 230.767 227.788 230.219 228.405 229.425C229.021 228.632 229.335 227.645 229.292 226.641C229.289 226.6 229.271 226.562 229.241 226.534C229.211 226.506 229.172 226.491 229.131 226.491C229.09 226.492 229.051 226.509 229.022 226.538C228.993 226.567 228.976 226.606 228.975 226.647C229.018 227.582 228.725 228.501 228.15 229.238C227.574 229.976 226.754 230.484 225.837 230.67C225.638 230.71 225.728 231.013 225.926 230.973Z" fill="#FAFAFA"/>
<path d="M224.318 239.496C222.589 238.387 221.342 236.667 220.825 234.679C220.774 234.482 220.471 234.572 220.522 234.769C221.064 236.836 222.365 238.624 224.167 239.774C224.339 239.883 224.489 239.605 224.318 239.496Z" fill="#FAFAFA"/>
<path d="M223.118 222.208C222.754 222.367 222.356 222.433 221.96 222.4C221.564 222.367 221.183 222.237 220.85 222.02C220.68 221.908 220.53 222.187 220.699 222.297C221.068 222.535 221.489 222.679 221.926 222.716C222.364 222.753 222.803 222.683 223.207 222.511C223.246 222.498 223.279 222.471 223.299 222.434C223.319 222.398 223.324 222.355 223.314 222.315C223.302 222.275 223.274 222.241 223.238 222.221C223.201 222.201 223.158 222.197 223.118 222.208Z" fill="#FAFAFA"/>
<path d="M198.436 228.684C198.54 228.757 198.645 228.83 198.749 228.905C200.147 229.89 201.463 230.987 202.683 232.186C202.779 232.277 202.875 232.371 202.968 232.464C205.878 235.382 208.22 238.815 209.876 242.588C210.534 244.09 211.077 245.64 211.499 247.225C212.083 249.413 212.541 251.832 213.777 253.646C213.904 253.836 214.043 254.019 214.192 254.193L225.875 254.568C225.902 254.555 225.929 254.546 225.956 254.533L226.422 254.57C226.406 254.486 226.388 254.4 226.372 254.317C226.362 254.269 226.351 254.22 226.342 254.172C226.335 254.14 226.328 254.108 226.323 254.078C226.321 254.067 226.319 254.057 226.316 254.048C226.312 254.019 226.305 253.992 226.3 253.965C226.198 253.484 226.093 253.003 225.984 252.522C225.984 252.52 225.984 252.52 225.981 252.517C225.185 248.843 223.956 245.276 222.32 241.891C222.27 241.791 222.22 241.688 222.164 241.587C221.404 240.088 220.523 238.653 219.53 237.298C218.983 236.557 218.4 235.844 217.781 235.163C216.18 233.405 214.311 231.909 212.245 230.732C208.126 228.385 203.302 227.381 198.78 228.589C198.665 228.62 198.552 228.651 198.436 228.684Z" fill="#F0F0F0"/>
<path d="M198.457 228.834C204.238 230.176 209.449 233.306 213.349 237.778C214.206 238.726 214.908 239.803 215.43 240.97C215.901 242.122 216.055 243.38 215.876 244.613C215.731 245.765 215.451 246.927 215.589 248.094C215.669 248.691 215.874 249.264 216.191 249.776C216.507 250.287 216.929 250.726 217.427 251.064C218.647 251.937 220.107 252.32 221.549 252.645C223.149 253.005 224.817 253.355 226.129 254.404C226.288 254.531 226.476 254.277 226.317 254.15C224.035 252.325 220.89 252.591 218.371 251.274C217.196 250.659 216.199 249.686 215.946 248.341C215.725 247.164 216.014 245.966 216.17 244.8C216.362 243.601 216.258 242.372 215.867 241.222C215.406 240.033 214.747 238.93 213.917 237.962C212.082 235.753 209.912 233.846 207.486 232.311C204.726 230.543 201.684 229.261 198.492 228.519C198.294 228.474 198.261 228.788 198.457 228.834Z" fill="#FAFAFA"/>
<path d="M212.178 236.264C212.84 235.508 213.211 234.541 213.225 233.536C213.24 232.531 212.897 231.554 212.257 230.779C212.127 230.623 211.878 230.817 212.008 230.974C212.605 231.695 212.925 232.605 212.909 233.54C212.894 234.476 212.545 235.375 211.924 236.076C211.79 236.228 212.044 236.416 212.178 236.264Z" fill="#FAFAFA"/>
<path d="M216.026 244.038C213.978 244.193 211.946 243.571 210.336 242.295C210.177 242.168 209.989 242.422 210.148 242.549C211.826 243.873 213.941 244.517 216.072 244.35C216.275 244.334 216.228 244.022 216.026 244.038Z" fill="#FAFAFA"/>
<path d="M204.659 230.957C204.464 231.303 204.186 231.595 203.85 231.807C203.514 232.019 203.131 232.144 202.735 232.172C202.532 232.185 202.579 232.498 202.781 232.484C203.219 232.452 203.642 232.313 204.013 232.08C204.385 231.846 204.693 231.525 204.912 231.145C204.936 231.111 204.946 231.069 204.94 231.028C204.934 230.987 204.912 230.95 204.88 230.924C204.846 230.899 204.804 230.889 204.762 230.895C204.721 230.901 204.684 230.923 204.659 230.957Z" fill="#FAFAFA"/>
<path d="M311.846 255.14C311.846 255.247 311.803 255.35 311.727 255.426C311.651 255.502 311.548 255.545 311.44 255.545H7.55977C7.45217 255.545 7.34897 255.503 7.27288 255.427C7.1968 255.351 7.15405 255.247 7.15405 255.14C7.15405 255.032 7.1968 254.929 7.27288 254.853C7.34897 254.777 7.45217 254.734 7.55977 254.734H311.44C311.548 254.734 311.651 254.777 311.727 254.853C311.803 254.929 311.846 255.032 311.846 255.14Z" fill="#3F3D56"/>
<path d="M202.892 98.191C203.739 98.191 204.426 97.5041 204.426 96.6568C204.426 95.8095 203.739 95.1226 202.892 95.1226C202.045 95.1226 201.358 95.8095 201.358 96.6568C201.358 97.5041 202.045 98.191 202.892 98.191Z" fill="#3F3D56"/>
<path d="M183.681 108.474L204.364 95.4797C204.552 95.3622 204.761 95.2837 204.979 95.2492C205.197 95.2146 205.42 95.2247 205.634 95.2787C205.849 95.3328 206.05 95.4297 206.226 95.5636C206.401 95.6975 206.548 95.8657 206.657 96.058C206.766 96.2502 206.835 96.4626 206.859 96.6822C206.884 96.9018 206.864 97.1241 206.8 97.3357C206.736 97.5473 206.631 97.7438 206.489 97.9133C206.347 98.0828 206.172 98.2218 205.975 98.3219L184.2 109.391C184.079 109.452 183.939 109.465 183.809 109.425C183.679 109.386 183.569 109.299 183.503 109.181C183.436 109.063 183.417 108.923 183.45 108.792C183.483 108.66 183.566 108.547 183.681 108.474Z" fill="#E4E4E4"/>
<path d="M142.184 136.455C142.021 136.213 141.936 135.927 141.941 135.635C141.945 135.343 142.038 135.06 142.208 134.822C142.558 134.353 143.024 133.984 143.56 133.75C144.667 133.187 145.859 132.81 147.088 132.635C148.023 132.502 149.043 132.46 149.767 131.856C150.487 131.255 150.889 130.133 151.821 130.039C152.723 129.948 153.417 130.935 154.321 130.997C155.435 131.072 156.165 129.768 157.25 129.5C157.976 129.321 158.723 129.637 159.404 129.946L163.49 131.8L165.585 132.75C166.317 133.082 167.142 133.529 167.28 134.321C167.47 135.408 166.261 136.176 165.226 136.562C157.841 139.287 149.726 139.288 142.341 136.565" fill="#1FA7B0"/>
<path d="M148.342 156.492C177.998 156.492 202.04 153.057 202.04 148.821C202.04 144.584 177.998 141.15 148.342 141.15C118.685 141.15 94.6433 144.584 94.6433 148.821C94.6433 153.057 118.685 156.492 148.342 156.492Z" fill="#3F3D56"/>
<path d="M257.272 196.382H220.451C218.756 196.382 217.382 197.756 217.382 199.45C217.382 201.145 218.756 202.519 220.451 202.519H257.272C258.967 202.519 260.341 201.145 260.341 199.45C260.341 197.756 258.967 196.382 257.272 196.382Z" fill="#3F3D56"/>
<path d="M275.117 141.675L262.956 199.447L266.123 214.234L272.103 242.14V254.683C272.104 254.7 272.102 254.717 272.1 254.734C272.098 255.011 272.047 255.286 271.95 255.546H267.142C267.045 255.286 266.994 255.011 266.992 254.734C266.99 254.717 266.988 254.7 266.989 254.683V242.678L261.561 217.35L260.463 212.236L258.339 202.325L257.726 199.454V199.45L258.332 196.573L258.8 194.353L270.112 140.625C270.181 140.296 270.314 139.983 270.503 139.706C270.692 139.428 270.934 139.191 271.216 139.007C271.497 138.823 271.812 138.697 272.142 138.634C272.472 138.572 272.811 138.576 273.14 138.645C273.469 138.714 273.781 138.847 274.058 139.036C274.336 139.226 274.573 139.469 274.756 139.75C274.94 140.031 275.066 140.346 275.128 140.676C275.19 141.007 275.186 141.346 275.117 141.675Z" fill="#3F3D56"/>
<path d="M223.008 199.45V254.683C223.008 254.7 223.007 254.717 223.004 254.734C223.002 255.011 222.952 255.286 222.854 255.545H218.047C217.95 255.286 217.899 255.011 217.897 254.734C217.894 254.717 217.893 254.7 217.894 254.683V199.45C217.894 198.772 218.163 198.122 218.643 197.642C219.122 197.163 219.773 196.893 220.451 196.893C221.129 196.893 221.779 197.163 222.259 197.642C222.738 198.122 223.008 198.772 223.008 199.45Z" fill="#3F3D56"/>
<path d="M226.587 190.245H251.135C253.577 190.245 255.918 191.215 257.644 192.941C259.371 194.668 260.341 197.009 260.341 199.45H217.382C217.382 197.009 218.352 194.668 220.078 192.941C221.805 191.215 224.146 190.245 226.587 190.245Z" fill="#3F3D56"/>
<path d="M263.409 217.35H220.451C219.772 217.35 219.122 217.08 218.642 216.601C218.163 216.121 217.894 215.471 217.894 214.793C217.894 214.115 218.163 213.464 218.642 212.985C219.122 212.505 219.772 212.236 220.451 212.236H263.409C264.087 212.236 264.738 212.505 265.217 212.985C265.697 213.464 265.966 214.115 265.966 214.793C265.966 215.471 265.697 216.121 265.217 216.601C264.738 217.08 264.087 217.35 263.409 217.35Z" fill="#3F3D56"/>
<path d="M63.5869 202.612H106.917C108.612 202.612 109.986 201.238 109.986 199.543V198.614C109.986 196.919 108.612 195.545 106.917 195.545H63.5869C61.8922 195.545 60.5184 196.919 60.5184 198.614V199.543C60.5184 201.238 61.8922 202.612 63.5869 202.612Z" fill="#3F3D56"/>
<path d="M63.1403 199.12L62.356 202.352L59.4785 214.189L58.2376 219.303L52.4756 243.026V253.319C52.4771 253.823 52.3275 254.316 52.0461 254.734C51.8248 255.072 51.5239 255.351 51.1699 255.545H48.6673C48.3132 255.351 48.0124 255.072 47.7911 254.734C47.5097 254.316 47.36 253.823 47.3614 253.319V242.412L53.7644 216.058L57.8967 199.038L43.8839 132.469C43.8146 132.141 43.8107 131.802 43.8724 131.472C43.9342 131.141 44.0604 130.827 44.2438 130.546C44.4273 130.264 44.6644 130.022 44.9415 129.832C45.2187 129.643 45.5305 129.51 45.8591 129.441C46.1878 129.372 46.5268 129.368 46.8568 129.43C47.1868 129.492 47.5013 129.619 47.7824 129.803C48.0635 129.986 48.3056 130.224 48.4948 130.501C48.6841 130.778 48.8169 131.09 48.8855 131.419L61.8379 192.935L62.4346 195.772L63.13 199.079L63.1403 199.12Z" fill="#3F3D56"/>
<path d="M109.011 199.079V253.319C109.012 253.823 108.862 254.316 108.581 254.734C108.36 255.072 108.059 255.351 107.705 255.545H105.199C104.846 255.35 104.547 255.071 104.326 254.734C104.045 254.316 103.895 253.823 103.896 253.319V199.079C103.896 198.401 104.166 197.75 104.645 197.271C105.125 196.791 105.775 196.522 106.454 196.522C107.132 196.522 107.782 196.791 108.262 197.271C108.741 197.75 109.011 198.401 109.011 199.079Z" fill="#3F3D56"/>
<path d="M109.986 199.079H60.5184V197.684C60.5184 196.475 60.7565 195.278 61.2191 194.161C61.6817 193.044 62.3598 192.029 63.2146 191.175C64.0694 190.32 65.0842 189.642 66.201 189.179C67.3179 188.716 68.5149 188.478 69.7238 188.478H100.78C103.222 188.478 105.563 189.448 107.29 191.175C109.016 192.901 109.986 195.242 109.986 197.684L109.986 199.079Z" fill="#3F3D56"/>
<path d="M106.452 219.302H56.9848C56.3066 219.302 55.6562 219.033 55.1767 218.553C54.6971 218.074 54.4277 217.424 54.4277 216.745C54.4277 216.067 54.6971 215.417 55.1767 214.937C55.6562 214.458 56.3066 214.188 56.9848 214.188H106.452C107.13 214.188 107.781 214.458 108.26 214.937C108.74 215.417 109.009 216.067 109.009 216.745C109.009 217.424 108.74 218.074 108.26 218.553C107.781 219.033 107.13 219.302 106.452 219.302Z" fill="#3F3D56"/>
<path d="M170.026 241.608L164.652 239.038L172.034 216.574L179.966 220.367L170.026 241.608Z" fill="#9E616A"/>
<path d="M206.448 239.573L200.669 240.999L192.296 218.89L200.826 216.786L206.448 239.573Z" fill="#9E616A"/>
<path d="M184.298 143.968C185.065 145.213 186.288 146.109 187.706 146.465C189.124 146.821 190.625 146.608 191.888 145.872C192.142 145.719 192.383 145.544 192.608 145.35L209.6 155.101L208.862 145.092L192.84 137.367C191.968 136.491 190.83 135.929 189.605 135.77C188.379 135.61 187.136 135.862 186.069 136.485C185.454 136.854 184.92 137.342 184.497 137.92C184.074 138.499 183.771 139.156 183.606 139.853C183.441 140.551 183.418 141.274 183.536 141.981C183.655 142.687 183.914 143.363 184.298 143.968Z" fill="#9E616A"/>
<path d="M202.295 151.429L205.298 153.26L218.787 161.485C219.673 162.04 220.66 162.414 221.691 162.587C222.721 162.76 223.776 162.728 224.794 162.493C225.813 162.258 226.775 161.824 227.626 161.217C228.476 160.61 229.199 159.841 229.753 158.954C230.751 157.309 231.105 155.352 230.745 153.461L224.749 123.508C224.528 122.332 224.055 121.218 223.363 120.242C222.672 119.266 221.777 118.45 220.741 117.851C219.705 117.253 218.552 116.885 217.361 116.772C216.17 116.66 214.969 116.806 213.839 117.201C211.941 117.868 210.368 119.234 209.44 121.02C208.513 122.805 208.3 124.878 208.846 126.814L215.115 148.071L205.506 143.591L202.295 151.429Z" fill="#E6E6E6"/>
<path d="M195.193 233.378L185.946 214.831L185.947 214.788L186.86 180.77C186.871 180.468 186.896 180.164 186.933 179.865C187.094 178.501 187.525 177.183 188.201 175.987C188.877 174.792 189.784 173.742 190.87 172.901C191.91 172.088 193.101 171.489 194.374 171.141C195.648 170.793 196.978 170.702 198.287 170.873L224.73 174.295L225.647 170.545L225.818 170.483L251.155 161.197L251.301 161.435C254.619 166.834 256.939 177.619 257.571 180.796L257.58 180.842C257.593 180.909 257.601 180.949 257.604 180.961C258.908 186.382 253.519 195.363 248.15 196.713C236.84 199.595 226.726 197.347 215.015 194.743C210.816 193.809 206.476 192.843 201.695 192.009L201.837 194.822C201.953 196.988 202.403 199.123 203.171 201.151C204.023 203.648 204.696 205.62 203.273 209.731L202.584 211.72C202.941 212.707 203.064 213.764 202.943 214.807C202.822 215.85 202.461 216.851 201.887 217.73L201.749 217.942L207.847 233.374L195.193 233.378Z" fill="#2F2E41"/>
<path d="M179.999 225.176L168.971 224.151L172.878 211.656C173.685 203.498 175.716 195.508 178.904 187.955L184.233 175.326C184.246 175.045 184.269 174.762 184.304 174.485C184.465 173.121 184.896 171.802 185.572 170.607C186.248 169.411 187.155 168.362 188.241 167.521C189.281 166.708 190.472 166.11 191.745 165.761C193.019 165.413 194.348 165.322 195.657 165.493L222.062 168.91L223.212 159.257L248.555 155.866L248.671 156.055C253.101 163.262 255.914 168.905 257.522 173.812C257.603 174.062 257.674 174.318 257.736 174.572C259.049 180.03 255.771 185.563 250.428 186.907C236.813 190.378 220.44 190.282 198.913 186.602L188.495 211.395C187.499 213.763 186.266 216.025 184.815 218.144L179.999 225.176Z" fill="#2F2E41"/>
<path d="M218.466 100.011C225.521 100.011 231.24 94.1647 231.24 86.9525C231.24 79.7403 225.521 73.8937 218.466 73.8937C211.411 73.8937 205.691 79.7403 205.691 86.9525C205.691 94.1647 211.411 100.011 218.466 100.011Z" fill="#9E616A"/>
<path d="M222.154 169.366L220.321 162.799L219.87 159.56L217.236 159.648L212.066 147.714L210.058 144.567C209.648 144.136 209.277 143.721 208.945 143.323C206.852 140.958 205.174 138.257 203.982 135.333C203.147 133.232 202.656 131.01 202.529 128.752C202.155 122.084 204.965 115.029 211.123 107.186C211.022 106.908 210.955 106.62 210.922 106.326C210.812 105.373 211.083 104.416 211.675 103.661C212.268 102.907 213.134 102.417 214.086 102.298L220.025 101.631C220.487 101.579 220.954 101.619 221.4 101.749C221.847 101.879 222.262 102.097 222.624 102.389C223.001 102.692 223.314 103.066 223.545 103.491C223.777 103.915 223.921 104.382 223.97 104.863C224.049 105.607 223.903 106.358 223.55 107.017C226.577 107.402 229.429 108.651 231.764 110.616C234.099 112.581 235.817 115.177 236.714 118.094C240.267 124.728 243.1 131.724 245.162 138.962C245.569 140.379 245.388 141.84 245.213 143.253C245.051 144.557 244.884 145.907 245.165 147.252C245.451 148.619 246.139 149.991 246.868 151.444C247.702 153.108 248.565 154.828 248.798 156.582L248.815 156.705L222.154 169.366Z" fill="#E4E4E4"/>
<path opacity="0.2" d="M204.14 135.268C205.327 138.175 206.995 140.861 209.075 143.214C209.432 143.639 209.808 144.057 210.201 144.476L212.222 147.646C219.671 142.063 225.706 120.079 225.706 120.079L217.302 118.444L204.14 135.268Z" fill="black"/>
<path d="M199.052 101.231C199.788 102.495 200.001 103.997 199.647 105.416C199.293 106.835 198.399 108.061 197.155 108.831C196.9 108.983 196.633 109.115 196.356 109.223L196.951 128.805L188.471 123.467L189.206 105.69C188.845 104.507 188.886 103.238 189.322 102.08C189.759 100.923 190.566 99.943 191.618 99.2927C192.231 98.922 192.911 98.6779 193.62 98.5748C194.329 98.4717 195.051 98.5117 195.744 98.6924C196.437 98.8731 197.087 99.1909 197.655 99.627C198.223 100.063 198.698 100.609 199.052 101.231Z" fill="#9E616A"/>
<path d="M197.696 121.413L188.371 122.739L188.772 142.051C188.795 143.428 189.17 144.777 189.861 145.969C190.553 147.161 191.537 148.156 192.722 148.86C194.169 149.711 195.853 150.069 197.521 149.88C199.189 149.691 200.75 148.964 201.97 147.81L223.986 126.634C225.535 125.164 226.462 123.157 226.577 121.025C226.691 118.893 225.984 116.798 224.601 115.171C223.917 114.361 223.077 113.697 222.131 113.218C221.185 112.738 220.152 112.454 219.094 112.382C218.036 112.309 216.975 112.45 215.972 112.796C214.97 113.142 214.047 113.685 213.259 114.394C213.041 114.589 212.834 114.795 212.639 115.012L198.101 131.736L197.696 121.413Z" fill="#E6E6E6"/>
<path d="M119.7 247.376L126.319 247.376L129.468 221.844L119.699 221.845L119.7 247.376Z" fill="#FFB6B6"/>
<path d="M82.1819 100.39C89.4781 100.39 95.3928 94.4757 95.3928 87.1795C95.3928 79.8833 89.4781 73.9686 82.1819 73.9686C74.8857 73.9686 68.9709 79.8833 68.9709 87.1795C68.9709 94.4757 74.8857 100.39 82.1819 100.39Z" fill="#FFB6B6"/>
<path d="M128.479 239.511H119.106L116.716 236.308L116.069 233.29L115.513 232.751C114.757 232.026 114.269 231.068 114.127 230.03C113.985 228.993 114.197 227.939 114.729 227.037L107.936 195.343C106.157 195.186 86.0922 193.392 72.1446 190.924C68.5751 190.292 65.7882 188.557 63.8612 185.767C59.1264 178.91 61.1547 167.816 61.1757 167.705L61.1991 167.581L61.3242 167.567L93.9027 163.91L93.9465 163.931C95.0276 164.443 120.472 176.523 124.63 180.681C126.508 182.558 130.697 193.714 131.635 205.574C131.803 207.698 131.198 209.862 130.613 211.955C130.066 213.913 129.501 215.937 129.613 217.851C129.785 220.804 129.948 223.902 130.098 227.059C130.122 227.561 130.501 228.082 130.868 228.585C131.25 229.111 131.612 229.608 131.635 230.128C131.858 235.168 128.563 239.404 128.53 239.446L128.479 239.511Z" fill="#2F2E41"/>
<path d="M130.614 122.367C129.904 122.173 129.16 122.137 128.435 122.261C127.71 122.386 127.021 122.667 126.417 123.087C125.812 123.507 125.307 124.054 124.937 124.689C124.567 125.325 124.341 126.034 124.274 126.767L113.298 130.198L113.756 137.377L129.189 132.314C130.427 132.344 131.633 131.919 132.579 131.119C133.525 130.319 134.144 129.2 134.32 127.973C134.495 126.747 134.215 125.499 133.532 124.466C132.849 123.433 131.81 122.686 130.614 122.367Z" fill="#FFB6B6"/>
<path d="M123.452 134.247L115.248 137.352L115.038 137.759C114.535 138.734 113.665 139.47 112.62 139.805C111.574 140.139 110.438 140.044 109.463 139.541L91.0231 146.52C91.0231 146.52 82.7884 138.28 76.9255 130.925L78.9237 118.635C79.3865 115.784 80.3701 113.041 81.8254 110.546C93.8491 113.183 100.751 129.991 100.751 129.991L122.421 125.856L123.452 134.247Z" fill="#1FA7B0"/>
<path d="M80.3043 99.6842C76.9969 100.577 73.3507 99.3899 70.7697 97.1372C68.1886 94.8846 66.574 91.6925 65.6437 88.3954C64.9624 85.9807 64.6393 83.3002 65.7145 81.0332C66.7897 78.7663 69.6834 77.2368 71.9158 78.3819C70.5386 76.7774 71.2267 74.1236 72.8351 72.7509C74.4436 71.3783 76.6522 70.9848 78.7558 70.7696C81.8086 70.4574 84.962 70.4225 87.867 71.4115C90.772 72.4006 93.4115 74.5628 94.3207 77.4938C95.2493 77.9262 96.295 78.0384 97.2942 77.8128C98.2933 77.5872 99.1894 77.0366 99.8421 76.2472C100.01 77.1538 99.8753 78.0906 99.4575 78.9126C99.0398 79.7347 98.3628 80.3962 97.5313 80.7947L101.982 79.3516C102.748 80.9719 101.407 82.9773 99.6913 83.4961C97.9761 84.015 96.1245 83.4479 94.4968 82.6982C92.8691 81.9486 91.2918 81.0009 89.5238 80.7085C87.7558 80.4161 85.679 80.9842 84.8612 82.5788C84.4329 83.4139 84.4105 84.392 84.1618 85.2971C83.9132 86.2021 83.2832 87.1405 82.3475 87.2145C81.7564 87.2613 81.1776 86.9464 80.5881 87.0108C79.8573 87.0907 79.2979 87.7527 79.1033 88.4616C78.9565 89.1841 78.9547 89.9285 79.098 90.6516L80.2286 99.2938" fill="#2F2E41"/>
<path d="M63.9372 187.345C63.9347 187.345 63.9322 187.345 63.9298 187.345L63.8253 187.327L63.7951 187.225C63.4153 185.948 62.932 184.64 62.4646 183.375C61.7762 181.624 61.1949 179.832 60.7241 178.01C60.3535 176.268 60.0965 174.504 59.9548 172.729C59.8244 171.44 59.6896 170.107 59.4603 168.795C59.3585 168.213 59.7443 167.661 60.1174 167.127C60.4634 166.633 60.7902 166.165 60.7216 165.723C60.6514 165.271 60.1502 164.775 59.6655 164.295C59.1341 163.769 58.5847 163.224 58.5069 162.652C57.4479 154.837 56.955 146.957 57.032 139.071C57.1414 128.161 57.6345 120.724 58.4974 116.968C60.8178 106.866 71.538 105.023 73.216 104.796C73.3947 104.32 73.6695 103.885 74.0233 103.52C74.377 103.155 74.8022 102.866 75.2722 102.673C75.7423 102.479 76.2472 102.384 76.7556 102.393C77.264 102.403 77.7649 102.517 78.2273 102.729L85.8442 106.216C87.3892 106.926 88.7718 107.945 89.906 109.212C91.0402 110.479 91.9018 111.965 92.4372 113.579L93.5688 117.029L94.1355 140.185L90.9946 156.492L97.1316 165.697C64.4239 183.655 64.0426 187.345 63.9372 187.345Z" fill="#1FA7B0"/>
<path d="M116.138 244.803L118.29 244.803L126.692 241.386L131.195 244.803H131.196C133.741 244.803 136.181 245.814 137.981 247.613C139.781 249.413 140.792 251.853 140.792 254.398V254.71L116.138 254.711L116.138 244.803Z" fill="#2F2E41"/>
<path d="M133.362 138.891C132.727 138.519 132.019 138.29 131.286 138.221C130.554 138.152 129.815 138.244 129.122 138.492C128.429 138.739 127.799 139.135 127.276 139.653C126.753 140.17 126.349 140.796 126.094 141.486L114.602 141.934L113.054 147.287L129.391 148.123C130.579 148.475 131.854 148.379 132.976 147.853C134.097 147.328 134.987 146.409 135.477 145.271C135.966 144.133 136.021 142.855 135.631 141.679C135.242 140.503 134.434 139.512 133.362 138.891Z" fill="#FFB6B6"/>
<path d="M123.922 148.7L112.118 148.553L110.624 148.533L86.6076 148.23C86.6076 148.23 80.0859 142.008 74.407 135.602L75.2029 129.845C75.9794 124.195 78.7821 119.019 83.0897 115.281C91.2232 120.716 95.94 131.474 95.94 131.474L103.849 135.013C109.414 135.262 114.838 136.85 119.659 139.643L122.259 141.15L123.922 148.7Z" fill="#1FA7B0"/>
<path d="M210.665 250.463L206.737 251.433L205.121 247.898L204.241 252.049L193.824 254.62C193.324 254.743 192.799 254.703 192.323 254.507C191.848 254.31 191.448 253.967 191.182 253.527C190.916 253.087 190.797 252.573 190.844 252.061C190.89 251.549 191.099 251.065 191.44 250.679L198.341 242.881L197.415 239.132L206.294 237.495L210.665 250.463Z" fill="#2F2E41"/>
<path d="M169.056 251.675L165.311 250.147L166.085 246.338L162.93 249.175L152.996 245.12C152.52 244.926 152.118 244.584 151.85 244.146C151.581 243.707 151.46 243.194 151.504 242.681C151.548 242.169 151.754 241.684 152.094 241.297C152.433 240.91 152.886 240.642 153.389 240.531L163.558 238.291L165.017 234.716L173.158 238.62L169.056 251.675Z" fill="#2F2E41"/>
<path d="M156.013 147.457H152.944C149.645 147.453 146.482 146.141 144.149 143.808C141.816 141.475 140.504 138.312 140.5 135.013V134.842H168.457V135.013C168.453 138.312 167.141 141.475 164.808 143.808C162.475 146.141 159.312 147.453 156.013 147.457Z" fill="#E4E4E4"/>
<path d="M152.944 130.41C152.944 131.257 151.41 131.944 151.41 131.944C151.41 131.944 149.876 131.257 149.876 130.41C149.876 129.563 151.41 128.876 151.41 128.876C151.41 128.876 152.944 129.563 152.944 130.41Z" fill="#3F3D56"/>
<path d="M162.15 130.41C162.15 131.257 160.616 131.944 160.616 131.944C160.616 131.944 159.081 131.257 159.081 130.41C159.081 129.563 160.616 128.876 160.616 128.876C160.616 128.876 162.15 129.563 162.15 130.41Z" fill="#3F3D56"/>
<path d="M156.013 133.478C156.013 134.326 154.479 135.013 154.479 135.013C154.479 135.013 152.944 134.326 152.944 133.478C152.944 132.631 154.479 131.944 154.479 131.944C154.479 131.944 156.013 132.631 156.013 133.478Z" fill="#3F3D56"/>
<path d="M145.273 127.171C146.12 127.171 146.807 126.484 146.807 125.637C146.807 124.789 146.12 124.103 145.273 124.103C144.426 124.103 143.739 124.789 143.739 125.637C143.739 126.484 144.426 127.171 145.273 127.171Z" fill="#3F3D56"/>
<path d="M122.96 122.34L147.157 125.681C147.376 125.712 147.587 125.786 147.776 125.9C147.966 126.014 148.13 126.165 148.259 126.344C148.389 126.523 148.48 126.726 148.529 126.942C148.577 127.158 148.582 127.381 148.542 127.598C148.502 127.815 148.418 128.022 148.296 128.206C148.173 128.39 148.015 128.548 147.83 128.669C147.645 128.79 147.438 128.872 147.22 128.911C147.003 128.95 146.779 128.944 146.564 128.894L122.769 123.375C122.636 123.345 122.521 123.264 122.447 123.151C122.372 123.037 122.345 122.899 122.369 122.766C122.394 122.633 122.469 122.514 122.579 122.434C122.689 122.355 122.825 122.321 122.96 122.34Z" fill="#E4E4E4"/>
<path d="M152.364 46.0996V0H149.296V46.0996C145.103 46.4821 141.205 48.4179 138.366 51.5269C135.528 54.6359 133.954 58.6936 133.953 62.9036V67.5063H144.693C144.693 69.1339 145.34 70.6949 146.49 71.8458C147.641 72.9967 149.202 73.6432 150.83 73.6432C152.458 73.6432 154.019 72.9967 155.169 71.8458C156.32 70.6949 156.967 69.1339 156.967 67.5063H167.707V62.9036C167.706 58.6936 166.132 54.6359 163.293 51.5269C160.455 48.4179 156.557 46.4821 152.364 46.0996Z" fill="#F0F0F0"/>
<path d="M191.871 34.5747V0H189.57V34.5747C186.425 34.8616 183.502 36.3134 181.373 38.6452C179.244 40.9769 178.063 44.0202 178.063 47.1777V50.6297H186.117C186.117 51.8504 186.602 53.0212 187.466 53.8843C188.329 54.7475 189.499 55.2324 190.72 55.2324C191.941 55.2324 193.112 54.7475 193.975 53.8843C194.838 53.0212 195.323 51.8504 195.323 50.6297H203.378V47.1777C203.377 44.0202 202.197 40.977 200.068 38.6452C197.939 36.3134 195.015 34.8616 191.871 34.5747Z" fill="#F0F0F0"/>
<path d="M114.136 34.5747V0H111.835V34.5747C108.69 34.8616 105.767 36.3134 103.638 38.6452C101.509 40.9769 100.328 44.0202 100.328 47.1777V50.6297H108.383C108.383 51.8504 108.868 53.0212 109.731 53.8843C110.594 54.7475 111.765 55.2324 112.985 55.2324C114.206 55.2324 115.377 54.7475 116.24 53.8843C117.103 53.0212 117.588 51.8504 117.588 50.6297H125.643V47.1777C125.642 44.0202 124.462 40.977 122.333 38.6452C120.204 36.3134 117.28 34.8616 114.136 34.5747Z" fill="#F0F0F0"/>
<path d="M252.648 81.289C250.476 78.7568 249.444 75.3973 247.708 72.522C245.972 69.6466 242.952 67.0731 239.761 67.7422C237.561 68.2035 235.861 70.1447 235 72.3088C234.14 74.4729 233.978 76.8595 233.827 79.1976C233.881 74.3928 230.715 69.7348 226.354 68.2017C221.994 66.6685 216.776 68.3787 214.036 72.2388C212.84 71.1305 211.279 70.4995 209.649 70.4653C208.019 70.431 206.433 70.996 205.192 72.0532C202.741 74.2436 202.199 78.4128 204.001 81.2068C205.804 84.0009 209.707 85.0417 212.572 83.4921L213.584 84.4236C213.014 86.4173 214.12 88.7723 215.978 89.5227C217.485 90.1314 219.612 90.0301 220.176 91.6113C220.57 92.7162 219.833 93.8955 219.05 94.7445C218.267 95.5935 217.337 96.4703 217.242 97.6452C217.1 99.4178 218.932 100.66 220.597 101.034C224.613 101.935 229.068 100.076 231.383 96.5324C231.427 96.4641 231.476 96.3957 231.528 96.3272C232.826 94.6667 233.773 92.7589 234.309 90.7203C234.845 88.6818 234.96 86.5553 234.647 84.4708C234.517 83.6518 234.648 83.0426 235.213 82.8487C237.653 82.0103 244.491 83.7699 246.561 85.3602C248.631 86.9504 250.288 89.055 252.281 90.7479C254.275 92.4408 256.815 93.7467 259.346 93.2857C261.373 92.9165 263.098 91.4448 264.258 89.6696C265.418 87.8944 266.085 85.8252 266.683 83.7688C262.2 86.3584 256.065 85.2744 252.648 81.289Z" fill="#2F2E41"/>
</g>
</g>
<defs>
<clipPath id="clip0_15_242">
<rect width="319" height="255.18" fill="white"/>
</clipPath>
<clipPath id="clip1_15_242">
<rect width="304.692" height="255.545" fill="white" transform="translate(7.15381)"/>
</clipPath>
</defs>
</svg>
